<?xml version="1.0" encoding="UTF-8"?>
<!DOCTYPE svg PUBLIC "-//W3C//DTD SVG 1.1//EN" "http://www.w3.org/Graphics/SVG/1.1/DTD/svg11.dtd">
<svg xmlns="http://www.w3.org/2000/svg" version="1.1" width="1024px" height="1024px" style="shape-rendering:geometricPrecision; text-rendering:geometricPrecision; image-rendering:optimizeQuality; fill-rule:evenodd; clip-rule:evenodd" xmlns:xlink="http://www.w3.org/1999/xlink">
<g><path style="opacity:1" fill="#0d0e0e" d="M -0.5,-0.5 C 340.833,-0.5 682.167,-0.5 1023.5,-0.5C 1023.5,340.833 1023.5,682.167 1023.5,1023.5C 682.167,1023.5 340.833,1023.5 -0.5,1023.5C -0.5,682.167 -0.5,340.833 -0.5,-0.5 Z"/></g>
<g><path style="opacity:1" fill="#fdfd25" d="M 356.5,395.5 C 288.668,396.333 220.668,396.833 152.5,397C 149.479,398.18 146.479,399.346 143.5,400.5C 145.428,398.526 147.761,397.026 150.5,396C 219.166,395.5 287.833,395.333 356.5,395.5 Z"/></g>
<g><path style="opacity:1" fill="#fac324" d="M 356.5,395.5 C 360.702,396.863 363.869,399.53 366,403.5C 366.667,475.5 366.667,547.5 366,619.5C 365.004,621.66 363.504,623.327 361.5,624.5C 360.078,624.709 358.745,625.209 357.5,626C 287.613,626.488 217.946,626.654 148.5,626.5C 141.7,623.696 137.366,618.696 135.5,611.5C 136.497,589.34 136.831,567.006 136.5,544.5C 144.628,537.57 149.628,528.904 151.5,518.5C 152.647,514.568 152.814,509.234 152,502.5C 151.01,497.994 149.177,493.994 146.5,490.5C 143.996,485.482 140.496,481.149 136,477.5C 135.832,457.996 135.332,438.662 134.5,419.5C 134.283,411.414 137.283,405.081 143.5,400.5C 146.479,399.346 149.479,398.18 152.5,397C 220.668,396.833 288.668,396.333 356.5,395.5 Z"/></g>
<g><path style="opacity:1" fill="#f9e827" d="M 480.5,492.5 C 462.164,492.667 443.83,492.5 425.5,492C 443.497,491.5 461.497,491.333 479.5,491.5C 479.5,487.167 479.5,482.833 479.5,478.5C 466.167,478.5 452.833,478.5 439.5,478.5C 439.5,453.167 439.5,427.833 439.5,402.5C 434.5,402.5 429.5,402.5 424.5,402.5C 429.396,400.554 434.729,399.887 440.5,400.5C 440.5,426.167 440.5,451.833 440.5,477.5C 453.833,477.5 467.167,477.5 480.5,477.5C 480.5,482.5 480.5,487.5 480.5,492.5 Z"/></g>
<g><path style="opacity:1" fill="#efda27" d="M 535.5,435.5 C 526.949,428.927 517.282,426.76 506.5,429C 503.479,430.18 500.479,431.346 497.5,432.5C 502.246,428.22 507.913,426.22 514.5,426.5C 521.87,426.568 528.537,428.735 534.5,433C 535.252,433.671 535.586,434.504 535.5,435.5 Z"/></g>
<g><path style="opacity:1" fill="#f7bf23" d="M 424.5,402.5 C 429.5,402.5 434.5,402.5 439.5,402.5C 439.5,427.833 439.5,453.167 439.5,478.5C 452.833,478.5 466.167,478.5 479.5,478.5C 479.5,482.833 479.5,487.167 479.5,491.5C 461.497,491.333 443.497,491.5 425.5,492C 443.83,492.5 462.164,492.667 480.5,492.5C 462.007,493.497 443.341,493.83 424.5,493.5C 424.5,463.167 424.5,432.833 424.5,402.5 Z"/></g>
<g><path style="opacity:1" fill="#f1db27" d="M 283.5,424.5 C 293.526,426.179 302.526,430.679 310.5,438C 316.554,438.726 321.388,436.559 325,431.5C 325.399,431.728 325.565,432.062 325.5,432.5C 321.666,438.247 316.333,440.414 309.5,439C 301.581,432.873 292.915,428.039 283.5,424.5 Z"/></g>
<g><path style="opacity:1" fill="#f8c123" d="M 640.5,493.5 C 634.62,492.809 628.62,491.976 622.5,491C 619.272,489.437 617.105,486.937 616,483.5C 615.833,468.822 615.333,454.155 614.5,439.5C 611.242,438.583 607.909,438.249 604.5,438.5C 604.5,435.5 604.5,432.5 604.5,429.5C 607.385,429.806 610.052,429.473 612.5,428.5C 613.488,423.36 613.821,418.026 613.5,412.5C 618.5,412.5 623.5,412.5 628.5,412.5C 628.5,417.5 628.5,422.5 628.5,427.5C 633.833,427.5 639.167,427.5 644.5,427.5C 644.5,431.833 644.5,436.167 644.5,440.5C 639.167,440.5 633.833,440.5 628.5,440.5C 628.333,452.505 628.5,464.505 629,476.5C 629.5,478.333 630.667,479.5 632.5,480C 635.817,480.498 639.15,480.665 642.5,480.5C 643.097,485.294 642.43,489.627 640.5,493.5 Z"/></g>
<g><path style="opacity:1" fill="#f3d325" d="M 612.5,428.5 C 610.052,429.473 607.385,429.806 604.5,429.5C 604.5,432.5 604.5,435.5 604.5,438.5C 607.909,438.249 611.242,438.583 614.5,439.5C 615.333,454.155 615.833,468.822 616,483.5C 617.105,486.937 619.272,489.437 622.5,491C 628.62,491.976 634.62,492.809 640.5,493.5C 631.738,495.913 623.904,494.246 617,488.5C 615.725,486.283 614.725,483.949 614,481.5C 613.5,467.837 613.333,454.171 613.5,440.5C 610.167,440.5 606.833,440.5 603.5,440.5C 603.5,436.5 603.5,432.5 603.5,428.5C 606.5,428.5 609.5,428.5 612.5,428.5 Z"/></g>
<g><path style="opacity:1" fill="#fbe227" d="M 134.5,419.5 C 135.332,438.662 135.832,457.996 136,477.5C 140.496,481.149 143.996,485.482 146.5,490.5C 142.898,486.395 139.065,482.395 135,478.5C 134.5,458.836 134.333,439.169 134.5,419.5 Z"/></g>
<g><path style="opacity:1" fill="#f7c123" d="M 565.5,493.5 C 566.552,493.649 567.552,493.483 568.5,493C 558.66,490.992 552.66,485.159 550.5,475.5C 554.555,475.176 558.555,475.509 562.5,476.5C 565.048,481.516 569.215,483.849 575,483.5C 579.68,483.553 583.513,481.886 586.5,478.5C 586.376,477.893 586.043,477.56 585.5,477.5C 585.756,475.208 585.423,473.041 584.5,471C 576.834,469.093 569.167,467.093 561.5,465C 550.612,459.692 547.112,451.192 551,439.5C 557.437,428.705 566.937,424.538 579.5,427C 590.647,428.981 597.314,435.481 599.5,446.5C 594.5,446.5 589.5,446.5 584.5,446.5C 584.256,443.737 582.923,441.571 580.5,440C 576.5,439.333 572.5,439.333 568.5,440C 564.089,444.868 564.756,448.868 570.5,452C 578.925,452.92 586.925,455.253 594.5,459C 601.513,465.515 603.346,473.348 600,482.5C 597.768,487.731 593.935,491.231 588.5,493C 580.732,495.945 573.065,496.112 565.5,493.5 Z"/></g>
<g><path style="opacity:1" fill="#9f7a20" d="M 563.5,474.5 C 558.637,474.181 553.97,474.514 549.5,475.5C 548.957,475.44 548.624,475.107 548.5,474.5C 553.652,473.186 558.652,473.186 563.5,474.5 Z"/></g>
<g><path style="opacity:1" fill="#f8c023" d="M 535.5,435.5 C 536.945,438.324 538.111,441.324 539,444.5C 539.5,460.163 539.667,475.83 539.5,491.5C 535.833,491.5 532.167,491.5 528.5,491.5C 528.286,489.856 528.62,488.356 529.5,487C 527.941,485.244 526.274,485.244 524.5,487C 523.5,488 522.5,489 521.5,490C 521.728,490.399 522.062,490.565 522.5,490.5C 522.167,491.5 521.5,492.167 520.5,492.5C 520.44,491.957 520.107,491.624 519.5,491.5C 507.684,495.902 497.518,493.569 489,484.5C 484.136,471.069 488.303,461.902 501.5,457C 510.078,456.818 518.578,456.318 527,455.5C 528.103,440.294 521.27,435.128 506.5,440C 504.787,441.378 503.453,443.045 502.5,445C 498.459,445.827 494.459,445.66 490.5,444.5C 492.031,439.984 494.364,435.984 497.5,432.5C 500.479,431.346 503.479,430.18 506.5,429C 517.282,426.76 526.949,428.927 535.5,435.5 Z"/></g>
<g><path style="opacity:1" fill="#0f0e0f" d="M 506.5,465.5 C 513.167,465.5 519.833,465.5 526.5,465.5C 525.821,478.036 519.155,483.202 506.5,481C 501.776,478.565 500.276,474.731 502,469.5C 503.397,467.93 504.897,466.596 506.5,465.5 Z"/></g>
<g><path style="opacity:1" fill="#f8d523" d="M 535.5,435.5 C 538.741,438.344 540.574,442.01 541,446.5C 541.5,462.163 541.667,477.83 541.5,493.5C 536.5,493.5 531.5,493.5 526.5,493.5C 526.662,491.473 526.495,489.473 526,487.5C 524.961,488.71 523.794,489.71 522.5,490.5C 522.062,490.565 521.728,490.399 521.5,490C 522.5,489 523.5,488 524.5,487C 526.274,485.244 527.941,485.244 529.5,487C 528.62,488.356 528.286,489.856 528.5,491.5C 532.167,491.5 535.833,491.5 539.5,491.5C 539.667,475.83 539.5,460.163 539,444.5C 538.111,441.324 536.945,438.324 535.5,435.5 Z"/></g>
<g><path style="opacity:1" fill="#f7e127" d="M 563.5,474.5 C 563.906,478.075 565.906,480.242 569.5,481C 573.167,481.667 576.833,481.667 580.5,481C 582.881,480.777 584.547,479.61 585.5,477.5C 586.043,477.56 586.376,477.893 586.5,478.5C 583.513,481.886 579.68,483.553 575,483.5C 569.215,483.849 565.048,481.516 562.5,476.5C 558.555,475.509 554.555,475.176 550.5,475.5C 552.66,485.159 558.66,490.992 568.5,493C 567.552,493.483 566.552,493.649 565.5,493.5C 556.236,490.908 550.903,484.908 549.5,475.5C 553.97,474.514 558.637,474.181 563.5,474.5 Z"/></g>
<g><path style="opacity:1" fill="#0f0e0f" d="M 283.5,424.5 C 292.915,428.039 301.581,432.873 309.5,439C 316.333,440.414 321.666,438.247 325.5,432.5C 327.148,430.571 328.815,428.571 330.5,426.5C 333.308,431.808 337.308,435.975 342.5,439C 335.03,442.632 330.364,448.465 328.5,456.5C 333.504,466.518 338.004,476.852 342,487.5C 350.93,526.374 340.43,558.874 310.5,585C 275.444,609.795 239.111,611.795 201.5,591C 171.145,569.451 156.978,539.951 159,502.5C 164.516,465.62 184.349,439.786 218.5,425C 240.111,417.857 261.778,417.69 283.5,424.5 Z"/></g>
<g><path style="opacity:1" fill="#fac324" d="M 237.5,433.5 C 273.997,429.165 302.164,442.498 322,473.5C 326.873,482.618 330.039,492.285 331.5,502.5C 331.939,520.753 327.939,538.086 319.5,554.5C 306.346,576.261 287.013,588.761 261.5,592C 220.311,594.327 191.811,576.494 176,538.5C 166.764,509.181 171.931,482.847 191.5,459.5C 191.435,459.938 191.601,460.272 192,460.5C 204.894,445.801 221.06,436.968 240.5,434C 239.552,433.517 238.552,433.351 237.5,433.5 Z"/></g>
<g><path style="opacity:1" fill="#0f0f0f" d="M 281.5,493.5 C 275.258,498.236 269.424,503.569 264,509.5C 263.362,522.834 256.862,527.334 244.5,523C 241.126,519.557 239.293,515.39 239,510.5C 237.568,508.561 235.735,507.228 233.5,506.5C 226.031,498.505 218.198,490.838 210,483.5C 208.857,476.304 211.691,473.804 218.5,476C 227.167,484.333 235.833,492.667 244.5,501C 248.194,500.496 251.86,500.663 255.5,501.5C 267.621,490.88 279.288,479.714 290.5,468C 297.309,465.804 300.143,468.304 299,475.5C 292.964,481.369 287.13,487.369 281.5,493.5 Z"/></g>
<g><path style="opacity:1" fill="#0f0e10" d="M 248.5,440.5 C 251.685,440.02 254.519,440.686 257,442.5C 257.667,447.5 257.667,452.5 257,457.5C 253.667,460.167 250.333,460.167 247,457.5C 246.333,452.5 246.333,447.5 247,442.5C 247.717,441.956 248.217,441.289 248.5,440.5 Z"/></g>
<g><path style="opacity:1" fill="#f6df29" d="M 237.5,433.5 C 238.552,433.351 239.552,433.517 240.5,434C 221.06,436.968 204.894,445.801 192,460.5C 191.601,460.272 191.435,459.938 191.5,459.5C 203.518,445.153 218.851,436.486 237.5,433.5 Z"/></g>
<g><path style="opacity:1" fill="#f0d825" d="M 497.5,432.5 C 494.364,435.984 492.031,439.984 490.5,444.5C 494.459,445.66 498.459,445.827 502.5,445C 503.453,443.045 504.787,441.378 506.5,440C 521.27,435.128 528.103,440.294 527,455.5C 518.578,456.318 510.078,456.818 501.5,457C 488.303,461.902 484.136,471.069 489,484.5C 497.518,493.569 507.684,495.902 519.5,491.5C 520.107,491.624 520.44,491.957 520.5,492.5C 506.978,498.158 495.812,495.158 487,483.5C 483.159,470.683 487.325,461.517 499.5,456C 508.432,454.619 517.432,454.119 526.5,454.5C 526.105,440.521 519.438,436.354 506.5,442C 505.128,443.242 504.128,444.742 503.5,446.5C 498.544,447.494 493.544,447.827 488.5,447.5C 489.136,443.219 490.636,439.219 493,435.5C 494.129,433.859 495.629,432.859 497.5,432.5 Z"/></g>
<g><path style="opacity:1" fill="#0e0d0f" d="M 306.5,506.5 C 311.179,506.334 315.845,506.501 320.5,507C 324.485,510.381 324.485,513.714 320.5,517C 315.833,517.667 311.167,517.667 306.5,517C 302.713,513.589 302.713,510.089 306.5,506.5 Z"/></g>
<g><path style="opacity:1" fill="#0c0c10" d="M 182.5,506.5 C 187.179,506.334 191.845,506.501 196.5,507C 200.485,510.286 200.485,513.619 196.5,517C 191.833,517.667 187.167,517.667 182.5,517C 179.88,513.502 179.88,510.002 182.5,506.5 Z"/></g>
<g><path style="opacity:1" fill="#f9eb27" d="M 146.5,490.5 C 149.177,493.994 151.01,497.994 152,502.5C 152.814,509.234 152.647,514.568 151.5,518.5C 152.378,508.685 150.711,499.352 146.5,490.5 Z"/></g>
<g><path style="opacity:1" fill="#f6e027" d="M 281.5,493.5 C 276.036,499.465 270.37,505.298 264.5,511C 265.673,518.299 262.673,523.299 255.5,526C 244.571,527.409 238.737,522.576 238,511.5C 235.928,510.266 234.428,508.599 233.5,506.5C 235.735,507.228 237.568,508.561 239,510.5C 239.293,515.39 241.126,519.557 244.5,523C 256.862,527.334 263.362,522.834 264,509.5C 269.424,503.569 275.258,498.236 281.5,493.5 Z"/></g>
<g><path style="opacity:1" fill="#f7c524" d="M 809.5,516.5 C 820.651,516.97 823.651,522.137 818.5,532C 808.768,535.899 803.935,532.732 804,522.5C 805.36,519.977 807.193,517.977 809.5,516.5 Z"/></g>
<g><path style="opacity:1" fill="#f9c524" d="M 508.5,516.5 C 515.437,515.631 519.437,518.631 520.5,525.5C 519.011,532.586 514.677,535.086 507.5,533C 503.723,530.045 502.557,526.212 504,521.5C 505.025,519.313 506.525,517.646 508.5,516.5 Z"/></g>
<g><path style="opacity:1" fill="#ead328" d="M 331.5,502.5 C 333.729,521.37 329.729,538.703 319.5,554.5C 327.939,538.086 331.939,520.753 331.5,502.5 Z"/></g>
<g><path style="opacity:1" fill="#fef626" d="M 434.5,521.5 C 434.565,521.938 434.399,522.272 434,522.5C 427.452,520.562 420.618,519.895 413.5,520.5C 413.172,547.741 413.505,574.907 414.5,602C 413.906,602.464 413.239,602.631 412.5,602.5C 412.5,574.833 412.5,547.167 412.5,519.5C 420.243,518.87 427.576,519.537 434.5,521.5 Z"/></g>
<g><path style="opacity:1" fill="#fef626" d="M 655.5,528.5 C 659.97,527.514 664.637,527.181 669.5,527.5C 669.5,531.833 669.5,536.167 669.5,540.5C 668.517,536.702 668.183,532.702 668.5,528.5C 664.833,528.5 661.167,528.5 657.5,528.5C 657.818,533.032 657.485,537.366 656.5,541.5C 656.818,536.968 656.485,532.634 655.5,528.5 Z"/></g>
<g><path style="opacity:1" fill="#986f20" d="M 655.5,528.5 C 656.485,532.634 656.818,536.968 656.5,541.5C 653.375,542.479 650.042,542.813 646.5,542.5C 646.5,546.167 646.5,549.833 646.5,553.5C 645.517,549.702 645.183,545.702 645.5,541.5C 648.833,541.5 652.167,541.5 655.5,541.5C 655.5,537.167 655.5,532.833 655.5,528.5 Z"/></g>
<g><path style="opacity:1" fill="#967222" d="M 866.5,542.5 C 871.348,541.186 876.348,541.186 881.5,542.5C 881.376,543.107 881.043,543.44 880.5,543.5C 876.03,542.514 871.363,542.181 866.5,542.5 Z"/></g>
<g><path style="opacity:1" fill="#fac224" d="M 434.5,521.5 C 435.537,522.93 436.204,524.597 436.5,526.5C 435.876,526.917 435.543,527.584 435.5,528.5C 437.32,534.11 438.986,539.777 440.5,545.5C 440.167,546.167 439.833,546.833 439.5,547.5C 438.749,546.624 438.249,545.624 438,544.5C 436.667,544.5 435.333,544.5 434,544.5C 433,545.833 432,547.167 431,548.5C 430.243,546.685 429.41,545.019 428.5,543.5C 427.883,543.389 427.383,543.056 427,542.5C 426.5,562.831 426.333,583.164 426.5,603.5C 421.637,603.819 416.97,603.486 412.5,602.5C 413.239,602.631 413.906,602.464 414.5,602C 413.505,574.907 413.172,547.741 413.5,520.5C 420.618,519.895 427.452,520.562 434,522.5C 434.399,522.272 434.565,521.938 434.5,521.5 Z"/></g>
<g><path style="opacity:1" fill="#f8bf23" d="M 817.5,543.5 C 817.5,562.833 817.5,582.167 817.5,601.5C 813.833,601.5 810.167,601.5 806.5,601.5C 806.5,582.167 806.5,562.833 806.5,543.5C 810.167,543.5 813.833,543.5 817.5,543.5 Z"/></g>
<g><path style="opacity:1" fill="#fcdc23" d="M 480.5,551.5 C 481.497,567.992 481.83,584.658 481.5,601.5C 485.5,601.5 489.5,601.5 493.5,601.5C 493.5,574.5 493.5,547.5 493.5,520.5C 487.167,520.5 480.833,520.5 474.5,520.5C 472.643,527.573 470.476,534.573 468,541.5C 467.601,541.272 467.435,540.938 467.5,540.5C 468.997,533.51 470.997,526.677 473.5,520C 480.826,519.5 488.159,519.334 495.5,519.5C 495.5,547.5 495.5,575.5 495.5,603.5C 490.5,603.5 485.5,603.5 480.5,603.5C 480.5,586.167 480.5,568.833 480.5,551.5 Z"/></g>
<g><path style="opacity:1" fill="#f9bf23" d="M 865.5,545.5 C 865.5,544.833 865.833,544.5 866.5,544.5C 870.747,543.398 875.08,543.232 879.5,544C 874.672,557.817 869.839,571.65 865,585.5C 864.42,580.599 862.753,580.265 860,584.5C 859.383,583.551 859.549,582.718 860.5,582C 859.256,581.544 858.423,582.044 858,583.5C 857.056,582.737 856.556,581.737 856.5,580.5C 859.566,570.136 862.732,559.803 866,549.5C 866.765,547.934 866.598,546.601 865.5,545.5 Z"/></g>
<g><path style="opacity:1" fill="#f9c023" d="M 552.5,541.5 C 568.123,538.324 577.456,544.658 580.5,560.5C 579.504,573.99 579.171,587.656 579.5,601.5C 575.833,601.5 572.167,601.5 568.5,601.5C 568.667,589.162 568.5,576.829 568,564.5C 567.841,562.657 567.341,561.991 566.5,562.5C 565.361,559.566 563.694,556.9 561.5,554.5C 561.082,553.778 560.416,553.278 559.5,553C 551.85,550.696 546.017,552.862 542,559.5C 540.571,573.441 540.071,587.441 540.5,601.5C 536.833,601.5 533.167,601.5 529.5,601.5C 529.5,582.167 529.5,562.833 529.5,543.5C 532.833,543.5 536.167,543.5 539.5,543.5C 539.248,546.32 539.748,548.986 541,551.5C 544.365,546.814 548.865,543.647 554.5,542C 553.906,541.536 553.239,541.369 552.5,541.5 Z"/></g>
<g><path style="opacity:1" fill="#f5c023" d="M 669.5,540.5 C 674.64,541.488 679.974,541.821 685.5,541.5C 685.5,545.5 685.5,549.5 685.5,553.5C 680.167,553.5 674.833,553.5 669.5,553.5C 668.341,564.993 668.174,576.659 669,588.5C 669.5,590.333 670.667,591.5 672.5,592C 675.482,592.498 678.482,592.665 681.5,592.5C 681.335,595.518 681.502,598.518 682,601.5C 682.498,598.183 682.665,594.85 682.5,591.5C 683.483,595.298 683.817,599.298 683.5,603.5C 677.491,603.666 671.491,603.499 665.5,603C 659.808,600.794 656.641,596.627 656,590.5C 655.5,578.171 655.333,565.838 655.5,553.5C 652.5,553.5 649.5,553.5 646.5,553.5C 646.5,549.833 646.5,546.167 646.5,542.5C 650.042,542.813 653.375,542.479 656.5,541.5C 657.485,537.366 657.818,533.032 657.5,528.5C 661.167,528.5 664.833,528.5 668.5,528.5C 668.183,532.702 668.517,536.702 669.5,540.5 Z"/></g>
<g><path style="opacity:1" fill="#f0e726" d="M 517.5,603.5 C 517.5,602.833 517.5,602.167 517.5,601.5C 517.5,582.167 517.5,562.833 517.5,543.5C 513.833,543.5 510.167,543.5 506.5,543.5C 505.833,543.5 505.167,543.5 504.5,543.5C 508.715,541.564 513.381,540.897 518.5,541.5C 518.831,562.34 518.497,583.007 517.5,603.5 Z"/></g>
<g><path style="opacity:1" fill="#d9aa20" d="M 541.5,542.5 C 537.167,542.5 532.833,542.5 528.5,542.5C 528.5,562.833 528.5,583.167 528.5,603.5C 527.503,583.007 527.169,562.34 527.5,541.5C 532.363,541.181 537.03,541.514 541.5,542.5 Z"/></g>
<g><path style="opacity:1" fill="#f9c023" d="M 480.5,551.5 C 480.806,548.615 480.473,545.948 479.5,543.5C 475.855,551.317 472.855,559.483 470.5,568C 468.119,572.579 465.952,572.412 464,567.5C 463.667,567.833 463.333,568.167 463,568.5C 462.727,566.899 462.227,565.399 461.5,564C 463.328,558.517 465.161,553.017 467,547.5C 467.78,545.613 467.613,543.946 466.5,542.5C 466.328,541.508 466.662,540.842 467.5,540.5C 467.435,540.938 467.601,541.272 468,541.5C 470.476,534.573 472.643,527.573 474.5,520.5C 480.833,520.5 487.167,520.5 493.5,520.5C 493.5,547.5 493.5,574.5 493.5,601.5C 489.5,601.5 485.5,601.5 481.5,601.5C 481.83,584.658 481.497,567.992 480.5,551.5 Z"/></g>
<g><path style="opacity:1" fill="#f9bf22" d="M 506.5,543.5 C 510.167,543.5 513.833,543.5 517.5,543.5C 517.5,562.833 517.5,582.167 517.5,601.5C 513.833,601.5 510.167,601.5 506.5,601.5C 506.5,582.167 506.5,562.833 506.5,543.5 Z"/></g>
<g><path style="opacity:1" fill="#f8cb23" d="M 713.5,592.5 C 715.292,593.309 717.292,593.809 719.5,594C 713.017,595.178 707.517,593.344 703,588.5C 702.653,590.18 701.653,591.18 700,591.5C 698.495,590.327 696.995,589.161 695.5,588C 697.384,587.784 699.051,587.117 700.5,586C 699.544,582.606 699.211,579.106 699.5,575.5C 713.5,575.5 727.5,575.5 741.5,575.5C 741.665,571.818 741.499,568.152 741,564.5C 740.667,566.167 740.333,567.833 740,569.5C 738.989,568.663 737.822,568.33 736.5,568.5C 736.798,565.664 736.131,565.164 734.5,567C 735.451,567.718 735.617,568.551 735,569.5C 733.933,568.809 732.766,568.309 731.5,568C 733.394,566.921 733.727,565.587 732.5,564C 734.387,564.423 736.387,564.256 738.5,563.5C 738.349,560.282 737.516,559.949 736,562.5C 734.209,560.487 732.875,560.487 732,562.5C 731.692,561.692 731.192,561.025 730.5,560.5C 730.394,562.982 730.061,565.482 729.5,568C 719.833,568.667 710.167,568.667 700.5,568C 699.186,565.973 699.186,564.807 700.5,564.5C 709.44,566.472 718.773,567.139 728.5,566.5C 726.389,553.164 719.055,549.331 706.5,555C 704.203,557.099 702.536,559.599 701.5,562.5C 701.298,558.743 702.965,555.576 706.5,553C 705.192,550.205 703.526,547.705 701.5,545.5C 695.277,549.57 691.111,555.236 689,562.5C 688.627,570.384 688.46,578.05 688.5,585.5C 683.775,571.028 686.442,558.194 696.5,547C 707.681,539.122 719.347,538.455 731.5,545C 740.905,553.373 744.905,563.873 743.5,576.5C 729.151,576.167 714.818,576.501 700.5,577.5C 700.975,585.968 705.308,590.968 713.5,592.5 Z"/></g>
<g><path style="opacity:1" fill="#0d0d0f" d="M 700.5,564.5 C 701.338,564.158 701.672,563.492 701.5,562.5C 702.536,559.599 704.203,557.099 706.5,555C 719.055,549.331 726.389,553.164 728.5,566.5C 718.773,567.139 709.44,566.472 700.5,564.5 Z"/></g>
<g><path style="opacity:1" fill="#171411" d="M 256.5,563.5 C 256.932,564.71 257.599,565.71 258.5,566.5C 258.888,571.628 258.388,576.628 257,581.5C 253.393,584.269 250.06,583.936 247,580.5C 246.104,575.051 246.437,569.718 248,564.5C 250.624,562.301 253.458,561.968 256.5,563.5 Z"/></g>
<g><path style="opacity:1" fill="#fce825" d="M 552.5,541.5 C 553.239,541.369 553.906,541.536 554.5,542C 548.865,543.647 544.365,546.814 541,551.5C 539.748,548.986 539.248,546.32 539.5,543.5C 536.167,543.5 532.833,543.5 529.5,543.5C 529.5,562.833 529.5,582.167 529.5,601.5C 533.167,601.5 536.833,601.5 540.5,601.5C 540.071,587.441 540.571,573.441 542,559.5C 546.017,552.862 551.85,550.696 559.5,553C 560.416,553.278 561.082,553.778 561.5,554.5C 553.147,551.457 546.98,553.79 543,561.5C 541.553,575.427 541.053,589.427 541.5,603.5C 537.167,603.5 532.833,603.5 528.5,603.5C 528.5,583.167 528.5,562.833 528.5,542.5C 532.833,542.5 537.167,542.5 541.5,542.5C 541.337,544.857 541.503,547.19 542,549.5C 544.211,545.121 547.711,542.454 552.5,541.5 Z"/></g>
<g><path style="opacity:1" fill="#f8c423" d="M 900.5,540.5 C 925.422,539.422 937.422,551.422 936.5,576.5C 922.167,576.5 907.833,576.5 893.5,576.5C 895.732,591.953 904.066,596.453 918.5,590C 919.743,588.846 920.743,587.512 921.5,586C 925.821,585.501 930.154,585.334 934.5,585.5C 931.861,595.971 925.195,602.137 914.5,604C 896.319,606.664 884.819,599.164 880,581.5C 876.289,562.254 883.122,548.587 900.5,540.5 Z"/></g>
<g><path style="opacity:1" fill="#0d0d0e" d="M 903.5,552.5 C 914.508,550.85 920.508,555.517 921.5,566.5C 912.167,566.5 902.833,566.5 893.5,566.5C 894.169,559.845 897.502,555.178 903.5,552.5 Z"/></g>
<g><path style="opacity:1" fill="#f1de27" d="M 602.5,586.5 C 601.778,586.082 601.278,585.416 601,584.5C 600.5,570.837 600.333,557.171 600.5,543.5C 596.5,543.5 592.5,543.5 588.5,543.5C 588.829,556.677 588.495,569.677 587.5,582.5C 587.5,568.833 587.5,555.167 587.5,541.5C 592.167,541.5 596.833,541.5 601.5,541.5C 601.232,556.529 601.566,571.529 602.5,586.5 Z"/></g>
<g><path style="opacity:1" fill="#cc991f" d="M 626.5,542.5 C 630.97,541.514 635.637,541.181 640.5,541.5C 640.831,562.34 640.497,583.007 639.5,603.5C 639.5,583.167 639.5,562.833 639.5,542.5C 635.167,542.5 630.833,542.5 626.5,542.5 Z"/></g>
<g><path style="opacity:1" fill="#f7c023" d="M 701.5,562.5 C 701.672,563.492 701.338,564.158 700.5,564.5C 699.186,564.807 699.186,565.973 700.5,568C 710.167,568.667 719.833,568.667 729.5,568C 730.061,565.482 730.394,562.982 730.5,560.5C 731.192,561.025 731.692,561.692 732,562.5C 732.875,560.487 734.209,560.487 736,562.5C 737.516,559.949 738.349,560.282 738.5,563.5C 736.387,564.256 734.387,564.423 732.5,564C 733.727,565.587 733.394,566.921 731.5,568C 732.766,568.309 733.933,568.809 735,569.5C 735.617,568.551 735.451,567.718 734.5,567C 736.131,565.164 736.798,565.664 736.5,568.5C 737.822,568.33 738.989,568.663 740,569.5C 740.333,567.833 740.667,566.167 741,564.5C 741.499,568.152 741.665,571.818 741.5,575.5C 727.5,575.5 713.5,575.5 699.5,575.5C 699.211,579.106 699.544,582.606 700.5,586C 699.051,587.117 697.384,587.784 695.5,588C 696.995,589.161 698.495,590.327 700,591.5C 701.653,591.18 702.653,590.18 703,588.5C 707.517,593.344 713.017,595.178 719.5,594C 717.292,593.809 715.292,593.309 713.5,592.5C 719.957,593.912 724.957,591.912 728.5,586.5C 732.783,585.508 737.116,585.174 741.5,585.5C 737.953,598.625 729.287,604.958 715.5,604.5C 702.104,604.31 693.104,597.977 688.5,585.5C 688.46,578.05 688.627,570.384 689,562.5C 691.111,555.236 695.277,549.57 701.5,545.5C 703.526,547.705 705.192,550.205 706.5,553C 702.965,555.576 701.298,558.743 701.5,562.5 Z"/></g>
<g><path style="opacity:1" fill="#fef023" d="M 626.5,542.5 C 630.833,542.5 635.167,542.5 639.5,542.5C 639.5,562.833 639.5,583.167 639.5,603.5C 639.167,603.5 638.833,603.5 638.5,603.5C 638.5,583.5 638.5,563.5 638.5,543.5C 634.833,543.5 631.167,543.5 627.5,543.5C 627.829,556.344 627.495,569.011 626.5,581.5C 626.5,568.5 626.5,555.5 626.5,542.5 Z"/></g>
<g><path style="opacity:1" fill="#f7d521" d="M 504.5,543.5 C 505.167,543.5 505.833,543.5 506.5,543.5C 506.5,562.833 506.5,582.167 506.5,601.5C 510.167,601.5 513.833,601.5 517.5,601.5C 517.5,602.167 517.5,602.833 517.5,603.5C 513.167,603.5 508.833,603.5 504.5,603.5C 504.5,583.5 504.5,563.5 504.5,543.5 Z"/></g>
<g><path style="opacity:1" fill="#f5c324" d="M 853.5,586.5 C 852.964,588.971 853.964,591.138 856.5,593C 858.84,592.441 860.84,592.608 862.5,593.5C 861.764,595.541 860.931,597.541 860,599.5C 859.176,595.335 857.009,594.502 853.5,597C 854.701,597.903 855.535,599.069 856,600.5C 857.073,599.72 858.24,599.887 859.5,601C 854.798,601.828 850.131,601.662 845.5,600.5C 845,599.5 844.5,598.5 844,597.5C 843.601,597.728 843.435,598.062 843.5,598.5C 836.875,580.033 830.542,561.366 824.5,542.5C 829.385,541.198 834.218,541.198 839,542.5C 843.547,557.393 848.38,572.06 853.5,586.5 Z"/></g>
<g><path style="opacity:1" fill="#fad622" d="M 817.5,543.5 C 818.167,543.5 818.833,543.5 819.5,543.5C 819.5,563.5 819.5,583.5 819.5,603.5C 814.637,603.819 809.97,603.486 805.5,602.5C 806.167,602.5 806.5,602.167 806.5,601.5C 810.167,601.5 813.833,601.5 817.5,601.5C 817.5,582.167 817.5,562.833 817.5,543.5 Z"/></g>
<g><path style="opacity:1" fill="#fcf125" d="M 669.5,553.5 C 669.085,565.562 669.585,577.562 671,589.5C 674.583,591.29 678.416,591.957 682.5,591.5C 682.665,594.85 682.498,598.183 682,601.5C 681.502,598.518 681.335,595.518 681.5,592.5C 678.482,592.665 675.482,592.498 672.5,592C 670.667,591.5 669.5,590.333 669,588.5C 668.174,576.659 668.341,564.993 669.5,553.5 Z"/></g>
<g><path style="opacity:1" fill="#faeb26" d="M 256.5,563.5 C 253.458,561.968 250.624,562.301 248,564.5C 246.437,569.718 246.104,575.051 247,580.5C 250.06,583.936 253.393,584.269 257,581.5C 258.388,576.628 258.888,571.628 258.5,566.5C 259.65,571.316 259.816,576.316 259,581.5C 254.667,585.5 250.333,585.5 246,581.5C 245.091,575.388 245.424,569.388 247,563.5C 250.351,560.945 253.518,560.945 256.5,563.5 Z"/></g>
<g><path style="opacity:1" fill="#f6ce24" d="M 866.5,542.5 C 871.363,542.181 876.03,542.514 880.5,543.5C 874.107,563.18 867.607,582.847 861,602.5C 855.593,603.473 850.093,603.807 844.5,603.5C 844.371,601.784 844.038,600.117 843.5,598.5C 843.435,598.062 843.601,597.728 844,597.5C 844.5,598.5 845,599.5 845.5,600.5C 850.131,601.662 854.798,601.828 859.5,601C 858.24,599.887 857.073,599.72 856,600.5C 855.535,599.069 854.701,597.903 853.5,597C 857.009,594.502 859.176,595.335 860,599.5C 860.931,597.541 861.764,595.541 862.5,593.5C 860.84,592.608 858.84,592.441 856.5,593C 853.964,591.138 852.964,588.971 853.5,586.5C 857.092,572.722 861.092,559.055 865.5,545.5C 866.598,546.601 866.765,547.934 866,549.5C 862.732,559.803 859.566,570.136 856.5,580.5C 856.556,581.737 857.056,582.737 858,583.5C 858.423,582.044 859.256,581.544 860.5,582C 859.549,582.718 859.383,583.551 860,584.5C 862.753,580.265 864.42,580.599 865,585.5C 869.839,571.65 874.672,557.817 879.5,544C 875.08,543.232 870.747,543.398 866.5,544.5C 866.5,543.833 866.5,543.167 866.5,542.5 Z"/></g>
<g><path style="opacity:1" fill="#f8c624" d="M 436.5,526.5 C 442.332,545.826 448.165,565.159 454,584.5C 458.479,570.584 462.645,556.584 466.5,542.5C 467.613,543.946 467.78,545.613 467,547.5C 465.161,553.017 463.328,558.517 461.5,564C 462.227,565.399 462.727,566.899 463,568.5C 463.333,568.167 463.667,567.833 464,567.5C 465.952,572.412 468.119,572.579 470.5,568C 472.855,559.483 475.855,551.317 479.5,543.5C 473.644,562.92 467.478,582.253 461,601.5C 458.959,602.752 456.625,603.419 454,603.5C 451.833,603.333 449.667,603.167 447.5,603C 440.264,583.457 433.93,563.624 428.5,543.5C 429.41,545.019 430.243,546.685 431,548.5C 432,547.167 433,545.833 434,544.5C 435.333,544.5 436.667,544.5 438,544.5C 438.249,545.624 438.749,546.624 439.5,547.5C 439.833,546.833 440.167,546.167 440.5,545.5C 438.986,539.777 437.32,534.11 435.5,528.5C 435.543,527.584 435.876,526.917 436.5,526.5 Z"/></g>
<g><path style="opacity:1" fill="#f9c423" d="M 602.5,586.5 C 606.824,591.182 612.158,592.682 618.5,591C 622.505,588.839 625.171,585.672 626.5,581.5C 627.495,569.011 627.829,556.344 627.5,543.5C 631.167,543.5 634.833,543.5 638.5,543.5C 638.5,563.5 638.5,583.5 638.5,603.5C 634.5,603.5 630.5,603.5 626.5,603.5C 626.663,601.143 626.497,598.81 626,596.5C 617.314,605.268 607.48,606.768 596.5,601C 590.542,596.304 587.542,590.137 587.5,582.5C 588.495,569.677 588.829,556.677 588.5,543.5C 592.5,543.5 596.5,543.5 600.5,543.5C 600.333,557.171 600.5,570.837 601,584.5C 601.278,585.416 601.778,586.082 602.5,586.5 Z"/></g>
<g><path style="opacity:1" fill="#fcd725" d="M 136.5,544.5 C 136.831,567.006 136.497,589.34 135.5,611.5C 134.854,600.044 134.521,588.544 134.5,577C 134.501,565.812 135.168,554.979 136.5,544.5 Z"/></g>
<g><path style="opacity:1" fill="#efe527" d="M 819.5,543.5 C 818.833,543.5 818.167,543.5 817.5,543.5C 813.833,543.5 810.167,543.5 806.5,543.5C 806.5,562.833 806.5,582.167 806.5,601.5C 806.5,602.167 806.167,602.5 805.5,602.5C 805.5,582.167 805.5,561.833 805.5,541.5C 810.619,540.897 815.285,541.564 819.5,543.5 Z"/></g>
<g><path style="opacity:1" fill="#fee423" d="M 580.5,560.5 C 580.5,574.833 580.5,589.167 580.5,603.5C 575.833,603.5 571.167,603.5 566.5,603.5C 566.5,589.833 566.5,576.167 566.5,562.5C 567.341,561.991 567.841,562.657 568,564.5C 568.5,576.829 568.667,589.162 568.5,601.5C 572.167,601.5 575.833,601.5 579.5,601.5C 579.171,587.656 579.504,573.99 580.5,560.5 Z"/></g>
<g><path style="opacity:1" fill="#fde525" d="M 765.5,589.5 C 764.502,566.673 764.169,543.673 764.5,520.5C 760.5,520.5 756.5,520.5 752.5,520.5C 752.5,547.5 752.5,574.5 752.5,601.5C 767.5,601.5 782.5,601.5 797.5,601.5C 797.5,597.833 797.5,594.167 797.5,590.5C 786.986,590.828 776.653,590.494 766.5,589.5C 777.167,589.5 787.833,589.5 798.5,589.5C 798.5,594.167 798.5,598.833 798.5,603.5C 782.833,603.5 767.167,603.5 751.5,603.5C 751.5,575.5 751.5,547.5 751.5,519.5C 756.167,519.5 760.833,519.5 765.5,519.5C 765.5,542.833 765.5,566.167 765.5,589.5 Z"/></g>
<g><path style="opacity:1" fill="#f9c123" d="M 765.5,589.5 C 765.833,589.5 766.167,589.5 766.5,589.5C 776.653,590.494 786.986,590.828 797.5,590.5C 797.5,594.167 797.5,597.833 797.5,601.5C 782.5,601.5 767.5,601.5 752.5,601.5C 752.5,574.5 752.5,547.5 752.5,520.5C 756.5,520.5 760.5,520.5 764.5,520.5C 764.169,543.673 764.502,566.673 765.5,589.5 Z"/></g>
<g><path style="opacity:1" fill="#f8d923" d="M 361.5,624.5 C 360.025,626.41 358.025,627.576 355.5,628C 287.833,628.667 220.167,628.667 152.5,628C 151.099,627.59 149.766,627.09 148.5,626.5C 217.946,626.654 287.613,626.488 357.5,626C 358.745,625.209 360.078,624.709 361.5,624.5 Z"/></g>
</svg>
