<?xml version="1.0" encoding="UTF-8"?>
<!DOCTYPE svg PUBLIC "-//W3C//DTD SVG 1.1//EN" "http://www.w3.org/Graphics/SVG/1.1/DTD/svg11.dtd">
<svg xmlns="http://www.w3.org/2000/svg" version="1.1" width="1024px" height="1024px" style="shape-rendering:geometricPrecision; text-rendering:geometricPrecision; image-rendering:optimizeQuality; fill-rule:evenodd; clip-rule:evenodd" xmlns:xlink="http://www.w3.org/1999/xlink">
<g><path style="opacity:0.997" fill="#fbc529" d="M 366.5,402.5 C 367.49,474.138 367.824,545.804 367.5,617.5C 365.859,624.304 361.526,628.138 354.5,629C 286.833,629.667 219.167,629.667 151.5,629C 149.482,628.495 147.482,627.995 145.5,627.5C 143.54,625.844 141.54,624.177 139.5,622.5C 138.013,619.527 136.513,616.527 135,613.5C 134.167,590.493 134.334,567.493 135.5,544.5C 146.282,536.435 151.615,525.602 151.5,512C 151.22,505.174 149.72,498.34 147,491.5C 145.951,489.382 144.451,487.716 142.5,486.5C 140.418,483.194 137.918,480.194 135,477.5C 133.669,456.803 133.669,435.803 135,414.5C 135.862,406.268 140.028,400.434 147.5,397C 179.011,395.852 210.511,395.018 242,394.5C 281.012,395.031 320.512,395.531 360.5,396C 363.749,397.08 365.749,399.247 366.5,402.5 Z"/></g>
<g><path style="opacity:0.004" fill="#f5c534" d="M 442.5,402.5 C 443.833,403.167 443.833,403.167 442.5,402.5 Z"/></g>
<g><path style="opacity:0.004" fill="#f7c833" d="M 369.5,412.5 C 370.833,413.167 370.833,413.167 369.5,412.5 Z"/></g>
<g><path style="opacity:0.995" fill="#fac32a" d="M 621.5,410.5 C 624.167,410.5 626.833,410.5 629.5,410.5C 628.621,413.527 628.287,416.527 628.5,419.5C 628.684,422.115 629.684,424.281 631.5,426C 631.167,426.333 630.833,426.667 630.5,427C 633.76,427.784 636.927,427.617 640,426.5C 641.067,427.191 642.234,427.691 643.5,428C 643.433,431.97 643.767,435.97 644.5,440C 639.355,441.446 634.021,441.946 628.5,441.5C 628.048,453.063 628.548,464.73 630,476.5C 630.5,477.667 631.333,478.5 632.5,479C 636.507,479.713 640.34,479.213 644,477.5C 644.5,478 645,478.5 645.5,479C 644.531,483.737 644.197,488.57 644.5,493.5C 638.178,494.277 631.845,494.444 625.5,494C 620.812,493.08 617.312,490.58 615,486.5C 613.469,480.362 612.303,474.196 611.5,468C 611.8,460.336 612.467,452.503 613.5,444.5C 613.167,443.833 612.833,443.167 612.5,442.5C 609.893,441.682 607.226,441.182 604.5,441C 603.167,436.667 603.167,432.333 604.5,428C 607.482,427.502 610.482,427.335 613.5,427.5C 612.463,422.352 612.296,417.352 613,412.5C 615.939,411.872 618.772,411.205 621.5,410.5 Z"/></g>
<g><path style="opacity:1" fill="#f7eb31" d="M 266.5,420.5 C 244.075,417.36 223.075,421.36 203.5,432.5C 203.062,432.565 202.728,432.399 202.5,432C 223.213,419.269 245.546,415.269 269.5,420C 268.552,420.483 267.552,420.649 266.5,420.5 Z"/></g>
<g><path style="opacity:0.997" fill="#1f1c20" d="M 266.5,420.5 C 267.568,421.434 268.901,421.768 270.5,421.5C 273.461,422.323 276.461,422.99 279.5,423.5C 279.631,424.239 279.464,424.906 279,425.5C 273.669,423.7 268.169,422.533 262.5,422C 253.772,421.158 247.772,421.324 244.5,422.5C 245.164,424.867 246.497,426.867 248.5,428.5C 249.192,427.975 249.692,427.308 250,426.5C 250.772,427.849 251.939,428.682 253.5,429C 248.833,429.333 244.167,429.667 239.5,430C 257.866,428.573 275.199,432.073 291.5,440.5C 291.705,438.448 291.705,436.114 291.5,433.5C 293.199,433.66 294.866,433.494 296.5,433C 291.705,430.287 286.705,427.954 281.5,426C 282.094,425.536 282.761,425.369 283.5,425.5C 293.997,429.703 303.997,434.703 313.5,440.5C 314.609,441.29 315.942,441.79 317.5,442C 315.5,442.667 313.5,442.667 311.5,442C 307.332,439.75 303.332,437.25 299.5,434.5C 296.552,434.916 295.885,436.249 297.5,438.5C 296.246,440.334 295.579,442.334 295.5,444.5C 274.695,431.765 252.695,428.765 229.5,435.5C 214.767,439.363 202.434,447.03 192.5,458.5C 191.5,458.833 190.833,459.5 190.5,460.5C 189.475,460.103 189.308,459.437 190,458.5C 192.833,455.667 195.667,452.833 198.5,450C 196.697,449.363 195.364,448.197 194.5,446.5C 193.41,447.391 193.41,448.391 194.5,449.5C 193.277,450.614 191.944,450.781 190.5,450C 191.622,448.387 191.122,447.22 189,446.5C 182.907,452.59 177.573,459.256 173,466.5C 172.31,467.738 171.81,467.738 171.5,466.5C 179.771,452.896 190.438,441.563 203.5,432.5C 223.075,421.36 244.075,417.36 266.5,420.5 Z"/></g>
<g><path style="opacity:0.997" fill="#272321" d="M 279.5,423.5 C 280.995,423.989 282.329,424.655 283.5,425.5C 282.761,425.369 282.094,425.536 281.5,426C 286.705,427.954 291.705,430.287 296.5,433C 294.866,433.494 293.199,433.66 291.5,433.5C 291.705,436.114 291.705,438.448 291.5,440.5C 275.199,432.073 257.866,428.573 239.5,430C 244.167,429.667 248.833,429.333 253.5,429C 251.939,428.682 250.772,427.849 250,426.5C 249.692,427.308 249.192,427.975 248.5,428.5C 246.497,426.867 245.164,424.867 244.5,422.5C 247.772,421.324 253.772,421.158 262.5,422C 268.169,422.533 273.669,423.7 279,425.5C 279.464,424.906 279.631,424.239 279.5,423.5 Z"/></g>
<g><path style="opacity:0.996" fill="#f3e62f" d="M 270.5,421.5 C 284.926,423.03 297.926,428.53 309.5,438C 312.63,439.389 315.63,439.889 318.5,439.5C 316.958,440.301 315.292,440.634 313.5,440.5C 303.997,434.703 293.997,429.703 283.5,425.5C 282.329,424.655 280.995,423.989 279.5,423.5C 276.461,422.99 273.461,422.323 270.5,421.5 Z"/></g>
<g><path style="opacity:0.012" fill="#f7c831" d="M 605.5,425.5 C 606.833,426.167 606.833,426.167 605.5,425.5 Z"/></g>
<g><path style="opacity:0.004" fill="#f8c833" d="M 610.5,425.5 C 611.833,426.167 611.833,426.167 610.5,425.5 Z"/></g>
<g><path style="opacity:0.004" fill="#f8ca33" d="M 369.5,426.5 C 370.833,427.167 370.833,427.167 369.5,426.5 Z"/></g>
<g><path style="opacity:0.008" fill="#f5c82f" d="M 497.5,427.5 C 498.833,428.167 498.833,428.167 497.5,427.5 Z"/></g>
<g><path style="opacity:0.996" fill="#fbc429" d="M 524.5,493.5 C 524.5,493.167 524.5,492.833 524.5,492.5C 525.613,491.054 525.78,489.387 525,487.5C 522.522,489.639 520.022,491.639 517.5,493.5C 515.549,493.227 514.049,493.893 513,495.5C 508.599,494.533 504.099,494.2 499.5,494.5C 486.723,487.684 482.889,477.35 488,463.5C 494.638,455.598 503.138,451.598 513.5,451.5C 516.422,452.491 519.588,452.824 523,452.5C 524.169,451.991 525.002,451.158 525.5,450C 524.491,443.161 520.491,439.661 513.5,439.5C 510.676,439.83 508.009,440.664 505.5,442C 504.458,444.557 503.125,446.89 501.5,449C 498.733,449.056 496.067,449.222 493.5,449.5C 491.224,448.787 488.891,448.287 486.5,448C 489.808,433.21 499.142,426.043 514.5,426.5C 529.729,425.572 538.562,432.572 541,447.5C 541.5,462.83 541.667,478.163 541.5,493.5C 538.813,493.336 536.146,493.503 533.5,494C 542.299,494.761 542.466,495.261 534,495.5C 531.833,495.333 529.667,495.167 527.5,495C 529.167,494.667 530.833,494.333 532.5,494C 529.639,493.8 526.972,493.633 524.5,493.5 Z M 522.5,475.5 C 521.922,474.453 521.256,474.62 520.5,476C 520.728,476.399 521.062,476.565 521.5,476.5C 518.998,479.623 515.665,481.29 511.5,481.5C 510.808,480.975 510.308,480.308 510,479.5C 504.903,480.755 502.403,478.588 502.5,473C 503.292,467.258 506.625,464.258 512.5,464C 525.361,460.341 528.694,464.175 522.5,475.5 Z"/></g>
<g><path style="opacity:0.995" fill="#fbc429" d="M 566.5,443.5 C 565.193,445.223 565.193,447.057 566.5,449C 572.19,451.705 578.19,453.205 584.5,453.5C 596.436,456.444 602.436,464.111 602.5,476.5C 601.214,479.756 599.88,483.089 598.5,486.5C 587.679,494.799 575.679,496.966 562.5,493C 552.122,489.09 547.455,482.09 548.5,472C 553.533,471.171 558.533,471.338 563.5,472.5C 563.957,474.598 564.957,476.264 566.5,477.5C 568.439,480.276 570.939,480.943 574,479.5C 574.333,480.167 574.667,480.833 575,481.5C 578.722,481.105 582.056,479.771 585,477.5C 586.168,474.107 585.334,471.441 582.5,469.5C 581.893,469.624 581.56,469.957 581.5,470.5C 578.402,470.587 578.068,470.087 580.5,469C 574.167,467.333 567.833,465.667 561.5,464C 551.012,459.58 547.179,451.746 550,440.5C 553.048,433.053 558.548,428.553 566.5,427C 577.796,424.317 587.629,426.817 596,434.5C 599.098,439.015 600.265,443.848 599.5,449C 594.858,449.461 590.191,449.461 585.5,449C 582.632,439.906 576.632,437.239 567.5,441C 566.748,441.671 566.414,442.504 566.5,443.5 Z"/></g>
<g><path style="opacity:0.998" fill="#fbc528" d="M 295.5,444.5 C 295.5,444.833 295.5,445.167 295.5,445.5C 315.742,460.287 327.575,480.287 331,505.5C 331.494,503.866 331.66,502.199 331.5,500.5C 333.789,515.475 332.123,530.142 326.5,544.5C 323.503,549.825 320.503,555.159 317.5,560.5C 313.527,565.14 309.194,569.473 304.5,573.5C 304.103,572.475 303.437,572.308 302.5,573C 292.071,581.88 280.071,587.547 266.5,590C 267.448,590.483 268.448,590.649 269.5,590.5C 259.721,592.415 249.721,592.915 239.5,592C 233.863,591.171 228.529,589.671 223.5,587.5C 218.395,584.583 212.728,581.416 206.5,578C 201.583,573.569 196.583,569.402 191.5,565.5C 190.5,564.833 189.5,564.167 188.5,563.5C 180.176,552.513 174.843,540.18 172.5,526.5C 171.35,508.81 174.517,491.81 182,475.5C 184.888,470.224 188.388,465.391 192.5,461C 191.906,460.536 191.239,460.369 190.5,460.5C 190.833,459.5 191.5,458.833 192.5,458.5C 192.435,458.938 192.601,459.272 193,459.5C 203.858,448.398 216.024,440.398 229.5,435.5C 252.695,428.765 274.695,431.765 295.5,444.5 Z"/></g>
<g><path style="opacity:0.006" fill="#f2c333" d="M 645.5,438.5 C 646.525,438.897 646.692,439.563 646,440.5C 645.536,439.906 645.369,439.239 645.5,438.5 Z"/></g>
<g><path style="opacity:0.004" fill="#f8c92e" d="M 572.5,440.5 C 573.833,441.167 573.833,441.167 572.5,440.5 Z"/></g>
<g><path style="opacity:0.004" fill="#faca2f" d="M 508.5,441.5 C 509.833,442.167 509.833,442.167 508.5,441.5 Z"/></g>
<g><path style="opacity:0.012" fill="#fac92b" d="M 506.5,442.5 C 507.833,443.167 507.833,443.167 506.5,442.5 Z"/></g>
<g><path style="opacity:0.004" fill="#f9c82e" d="M 547.5,442.5 C 548.833,443.167 548.833,443.167 547.5,442.5 Z"/></g>
<g><path style="opacity:0.004" fill="#f9c82f" d="M 605.5,442.5 C 606.833,443.167 606.833,443.167 605.5,442.5 Z"/></g>
<g><path style="opacity:0.004" fill="#fcc92f" d="M 610.5,442.5 C 611.833,443.167 611.833,443.167 610.5,442.5 Z"/></g>
<g><path style="opacity:0.004" fill="#f9ca2d" d="M 631.5,442.5 C 632.833,443.167 632.833,443.167 631.5,442.5 Z"/></g>
<g><path style="opacity:0.004" fill="#f6c62e" d="M 637.5,443.5 C 638.251,442.427 639.251,442.26 640.5,443C 639.552,443.483 638.552,443.649 637.5,443.5 Z"/></g>
<g><path style="opacity:0.004" fill="#facb2a" d="M 521.5,444.5 C 522.833,445.167 522.833,445.167 521.5,444.5 Z"/></g>
<g><path style="opacity:0.008" fill="#fbca31" d="M 566.5,443.5 C 567.573,444.251 567.74,445.251 567,446.5C 566.517,445.552 566.351,444.552 566.5,443.5 Z"/></g>
<g><path style="opacity:1" fill="#f5e92e" d="M 229.5,435.5 C 216.024,440.398 203.858,448.398 193,459.5C 192.601,459.272 192.435,458.938 192.5,458.5C 202.434,447.03 214.767,439.363 229.5,435.5 Z"/></g>
<g><path style="opacity:0.009" fill="#fccb2e" d="M 522.5,446.5 C 523.782,447.708 523.782,449.042 522.5,450.5C 522.094,449.443 522.094,448.109 522.5,446.5 Z"/></g>
<g><path style="opacity:0.004" fill="#fcc828" d="M 519.5,449.5 C 520.833,450.167 520.833,450.167 519.5,449.5 Z"/></g>
<g><path style="opacity:0.004" fill="#faca2a" d="M 547.5,449.5 C 548.833,450.167 548.833,450.167 547.5,449.5 Z"/></g>
<g><path style="opacity:0.016" fill="#fcca2d" d="M 497.5,451.5 C 497.897,450.475 498.563,450.308 499.5,451C 498.906,451.464 498.239,451.631 497.5,451.5 Z"/></g>
<g><path style="opacity:0.004" fill="#facb2d" d="M 575.5,450.5 C 576.833,451.167 576.833,451.167 575.5,450.5 Z"/></g>
<g><path style="opacity:0.006" fill="#fbc92d" d="M 597.5,451.5 C 597.897,450.475 598.563,450.308 599.5,451C 598.906,451.464 598.239,451.631 597.5,451.5 Z"/></g>
<g><path style="opacity:0.004" fill="#fbca2c" d="M 500.5,450.5 C 502.355,450.272 503.188,450.939 503,452.5C 502.333,451.167 501.667,451.167 501,452.5C 500.536,451.906 500.369,451.239 500.5,450.5 Z"/></g>
<g><path style="opacity:0.008" fill="#fccb2c" d="M 498.5,452.5 C 499.833,453.167 499.833,453.167 498.5,452.5 Z"/></g>
<g><path style="opacity:0.004" fill="#f7c82f" d="M 584.5,452.5 C 585.833,453.167 585.833,453.167 584.5,452.5 Z"/></g>
<g><path style="opacity:1" fill="#fbe92d" d="M 249.5,439.5 C 256.523,440.027 259.856,443.861 259.5,451C 259.069,459.124 255.069,462.124 247.5,460C 246.299,459.097 245.465,457.931 245,456.5C 244.333,452.5 244.333,448.5 245,444.5C 246.025,442.313 247.525,440.646 249.5,439.5 Z"/></g>
<g><path style="opacity:0.997" fill="#252021" d="M 248.5,441.5 C 251.97,440.875 254.804,441.875 257,444.5C 257.667,448.5 257.667,452.5 257,456.5C 252.837,460.747 249.171,460.414 246,455.5C 244.806,450.369 245.639,445.702 248.5,441.5 Z"/></g>
<g><path style="opacity:0.008" fill="#f9c92b" d="M 542.5,457.5 C 543.833,458.167 543.833,458.167 542.5,457.5 Z"/></g>
<g><path style="opacity:0.004" fill="#facb2e" d="M 487.5,458.5 C 488.833,459.167 488.833,459.167 487.5,458.5 Z"/></g>
<g><path style="opacity:0.312" fill="#fbcf47" d="M 366.5,402.5 C 367.222,402.918 367.722,403.584 368,404.5C 368.832,475.668 368.665,546.668 367.5,617.5C 367.824,545.804 367.49,474.138 366.5,402.5 Z"/></g>
<g><path style="opacity:0.996" fill="#f4e62f" d="M 295.5,445.5 C 303.372,449.702 310.039,455.369 315.5,462.5C 324.114,473.735 329.448,486.402 331.5,500.5C 331.66,502.199 331.494,503.866 331,505.5C 327.575,480.287 315.742,460.287 295.5,445.5 Z"/></g>
<g><path style="opacity:0.992" fill="#0e0a1d" d="M 329.5,449.5 C 327.782,451.926 327.282,454.593 328,457.5C 338.219,472.991 343.719,489.991 344.5,508.5C 344.5,512.5 344.5,516.5 344.5,520.5C 343.908,523.127 343.575,525.794 343.5,528.5C 345.592,503.526 340.092,480.192 327,458.5C 326.004,454.793 326.67,451.459 329,448.5C 329.399,448.728 329.565,449.062 329.5,449.5 Z"/></g>
<g><path style="opacity:0.012" fill="#faca2a" d="M 542.5,465.5 C 543.833,466.167 543.833,466.167 542.5,465.5 Z"/></g>
<g><path style="opacity:0.006" fill="#fccb2f" d="M 561.5,466.5 C 561.897,465.475 562.563,465.308 563.5,466C 562.906,466.464 562.239,466.631 561.5,466.5 Z"/></g>
<g><path style="opacity:0.012" fill="#fdcc2d" d="M 565.5,466.5 C 566.833,467.167 566.833,467.167 565.5,466.5 Z"/></g>
<g><path style="opacity:0.004" fill="#fdca2f" d="M 568.5,467.5 C 569.525,467.897 569.692,468.563 569,469.5C 568.536,468.906 568.369,468.239 568.5,467.5 Z"/></g>
<g><path style="opacity:0.008" fill="#fccb2d" d="M 559.5,469.5 C 560.833,470.167 560.833,470.167 559.5,469.5 Z"/></g>
<g><path style="opacity:0.016" fill="#fbcb2c" d="M 581.5,470.5 C 582.833,471.167 582.833,471.167 581.5,470.5 Z"/></g>
<g><path style="opacity:0.004" fill="#fbc82c" d="M 564.5,472.5 C 564.56,471.957 564.893,471.624 565.5,471.5C 566.583,472.365 566.749,473.365 566,474.5C 565.722,473.584 565.222,472.918 564.5,472.5 Z"/></g>
<g><path style="opacity:0.008" fill="#fbc82a" d="M 542.5,473.5 C 543.833,474.167 543.833,474.167 542.5,473.5 Z"/></g>
<g><path style="opacity:0.004" fill="#f9c72b" d="M 606.5,473.5 C 607.833,474.167 607.833,474.167 606.5,473.5 Z"/></g>
<g><path style="opacity:0.004" fill="#fbc92f" d="M 630.5,473.5 C 631.833,474.167 631.833,474.167 630.5,473.5 Z"/></g>
<g><path style="opacity:0.014" fill="#fbc931" d="M 583.5,472.5 C 584.598,473.601 584.765,474.934 584,476.5C 583.51,475.207 583.343,473.873 583.5,472.5 Z"/></g>
<g><path style="opacity:0.004" fill="#fbc92c" d="M 483.5,475.5 C 484.833,476.167 484.833,476.167 483.5,475.5 Z"/></g>
<g><path style="opacity:0.004" fill="#f9c72e" d="M 369.5,476.5 C 370.833,477.167 370.833,477.167 369.5,476.5 Z"/></g>
<g><path style="opacity:0.008" fill="#fbc92d" d="M 546.5,476.5 C 547.833,477.167 547.833,477.167 546.5,476.5 Z"/></g>
<g><path style="opacity:0.008" fill="#facc2f" d="M 566.5,476.5 C 567.833,477.167 567.833,477.167 566.5,476.5 Z"/></g>
<g><path style="opacity:0.004" fill="#f9c726" d="M 602.5,476.5 C 603.833,477.167 603.833,477.167 602.5,476.5 Z"/></g>
<g><path style="opacity:1" fill="#f3e530" d="M 342.5,440.5 C 338.606,442.83 334.773,446.164 331,450.5C 330.077,452.034 329.577,453.701 329.5,455.5C 333.639,464.448 337.806,473.448 342,482.5C 345.68,494.589 347.013,506.922 346,519.5C 345.823,515.644 345.323,511.977 344.5,508.5C 343.719,489.991 338.219,472.991 328,457.5C 327.282,454.593 327.782,451.926 329.5,449.5C 332.978,445.371 337.311,442.371 342.5,440.5 Z"/></g>
<g><path style="opacity:0.004" fill="#fac827" d="M 542.5,479.5 C 543.833,480.167 543.833,480.167 542.5,479.5 Z"/></g>
<g><path style="opacity:0.008" fill="#fbca2a" d="M 542.5,481.5 C 543.833,482.167 543.833,482.167 542.5,481.5 Z"/></g>
<g><path style="opacity:0.004" fill="#f9ca2a" d="M 542.5,483.5 C 543.833,484.167 543.833,484.167 542.5,483.5 Z"/></g>
<g><path style="opacity:0.996" fill="#0d0a1d" d="M 326.5,544.5 C 332.123,530.142 333.789,515.475 331.5,500.5C 329.448,486.402 324.114,473.735 315.5,462.5C 316.329,461.668 317.162,462.001 318,463.5C 334.823,487.597 338.49,513.597 329,541.5C 328.623,542.942 327.79,543.942 326.5,544.5 Z"/></g>
<g><path style="opacity:0.004" fill="#f7c732" d="M 142.5,486.5 C 141.833,487.167 141.833,487.167 142.5,486.5 Z"/></g>
<g><path style="opacity:0.02" fill="#f4c330" d="M 598.5,486.5 C 599.833,487.167 599.833,487.167 598.5,486.5 Z"/></g>
<g><path style="opacity:0.998" fill="#221e21" d="M 269.5,503.5 C 264.757,505.693 263.091,509.193 264.5,514C 263.565,517.365 262.232,520.532 260.5,523.5C 247.335,528.721 240.335,524.054 239.5,509.5C 239.027,508.094 238.027,507.427 236.5,507.5C 227.531,498.7 218.365,490.033 209,481.5C 207.913,478.386 208.746,476.053 211.5,474.5C 212.833,474.5 214.167,474.5 215.5,474.5C 226.585,482.744 237.251,491.578 247.5,501C 250.167,501.667 252.833,501.667 255.5,501C 257.037,499.293 258.704,497.793 260.5,496.5C 270.16,488.173 279.494,479.506 288.5,470.5C 290.34,468.832 292.34,467.332 294.5,466C 300.313,465.829 302.48,468.662 301,474.5C 290.63,484.373 280.13,494.039 269.5,503.5 Z"/></g>
<g><path style="opacity:0.016" fill="#f3c432" d="M 646.5,489.5 C 645.427,488.749 645.26,487.749 646,486.5C 646.483,487.448 646.649,488.448 646.5,489.5 Z"/></g>
<g><path style="opacity:0.008" fill="#fac931" d="M 143.5,489.5 C 144.833,490.167 144.833,490.167 143.5,489.5 Z"/></g>
<g><path style="opacity:1" fill="#f8e92e" d="M 269.5,503.5 C 280.13,494.039 290.63,484.373 301,474.5C 302.48,468.662 300.313,465.829 294.5,466C 292.34,467.332 290.34,468.832 288.5,470.5C 289.596,467.101 292.263,464.768 296.5,463.5C 302.675,465.529 304.508,469.529 302,475.5C 291.833,485 281.667,494.5 271.5,504C 270.563,504.692 269.897,504.525 269.5,503.5 Z"/></g>
<g><path style="opacity:0.012" fill="#f8c62f" d="M 542.5,488.5 C 543.525,488.897 543.692,489.563 543,490.5C 542.536,489.906 542.369,489.239 542.5,488.5 Z"/></g>
<g><path style="opacity:0.004" fill="#f3c52f" d="M 646.5,489.5 C 647.833,490.167 647.833,490.167 646.5,489.5 Z"/></g>
<g><path style="opacity:1" fill="#f2e530" d="M 211.5,474.5 C 208.746,476.053 207.913,478.386 209,481.5C 218.365,490.033 227.531,498.7 236.5,507.5C 225.885,499.907 216.052,491.241 207,481.5C 206.243,478.013 207.409,475.346 210.5,473.5C 211.107,473.624 211.44,473.957 211.5,474.5 Z"/></g>
<g><path style="opacity:0.016" fill="#f3c22c" d="M 646.5,490.5 C 645.833,491.167 645.833,491.167 646.5,490.5 Z"/></g>
<g><path style="opacity:0.004" fill="#fbc82d" d="M 524.5,492.5 C 523.833,491.167 523.833,491.167 524.5,492.5 Z"/></g>
<g><path style="opacity:0.008" fill="#f7c62d" d="M 542.5,491.5 C 543.833,492.167 543.833,492.167 542.5,491.5 Z"/></g>
<g><path style="opacity:0.327" fill="#fbd244" d="M 425.5,401.5 C 430.567,400.176 435.734,400.176 441,401.5C 441.5,426.498 441.667,451.498 441.5,476.5C 454.167,476.5 466.833,476.5 479.5,476.5C 479.5,482.167 479.5,487.833 479.5,493.5C 476.482,493.335 473.482,493.502 470.5,494C 470.833,494.333 471.167,494.667 471.5,495C 469.833,495.667 468.167,495.667 466.5,495C 467.5,494.667 468.5,494.333 469.5,494C 454.504,493.5 439.504,493.333 424.5,493.5C 424.169,462.662 424.502,431.995 425.5,401.5 Z"/></g>
<g><path style="opacity:0.996" fill="#fbc326" d="M 425.5,401.5 C 430.43,401.197 435.263,401.531 440,402.5C 440.5,427.498 440.667,452.498 440.5,477.5C 453.167,477.5 465.833,477.5 478.5,477.5C 478.5,482.5 478.5,487.5 478.5,492.5C 460.833,492.5 443.167,492.5 425.5,492.5C 425.5,462.167 425.5,431.833 425.5,401.5 Z"/></g>
<g><path style="opacity:0.008" fill="#fbc82c" d="M 519.5,492.5 C 520.833,493.167 520.833,493.167 519.5,492.5 Z"/></g>
<g><path style="opacity:0.008" fill="#fbcc2d" d="M 495.5,493.5 C 496.833,494.167 496.833,494.167 495.5,493.5 Z"/></g>
<g><path style="opacity:0.004" fill="#fdca2e" d="M 524.5,493.5 C 524.631,494.239 524.464,494.906 524,495.5C 523.308,494.563 523.475,493.897 524.5,493.5 Z"/></g>
<g><path style="opacity:0.004" fill="#f9cc2f" d="M 559.5,493.5 C 560.833,494.167 560.833,494.167 559.5,493.5 Z"/></g>
<g><path style="opacity:0.008" fill="#f8c82b" d="M 588.5,494.5 C 588.897,493.475 589.563,493.308 590.5,494C 589.906,494.464 589.239,494.631 588.5,494.5 Z"/></g>
<g><path style="opacity:0.008" fill="#f7c62c" d="M 619.5,494.5 C 619.897,493.475 620.563,493.308 621.5,494C 620.906,494.464 620.239,494.631 619.5,494.5 Z"/></g>
<g><path style="opacity:0.004" fill="#f9c82d" d="M 426.5,494.5 C 427.833,495.167 427.833,495.167 426.5,494.5 Z"/></g>
<g><path style="opacity:0.012" fill="#f9c830" d="M 431.5,495.5 C 434.64,494.359 437.973,494.192 441.5,495C 438.183,495.498 434.85,495.665 431.5,495.5 Z"/></g>
<g><path style="opacity:0.004" fill="#f8c92e" d="M 447.5,495.5 C 447.897,494.475 448.563,494.308 449.5,495C 448.906,495.464 448.239,495.631 447.5,495.5 Z"/></g>
<g><path style="opacity:0.008" fill="#f8cb2e" d="M 450.5,494.5 C 451.833,495.167 451.833,495.167 450.5,494.5 Z"/></g>
<g><path style="opacity:0.004" fill="#f9c82d" d="M 452.5,495.5 C 452.897,494.475 453.563,494.308 454.5,495C 453.906,495.464 453.239,495.631 452.5,495.5 Z"/></g>
<g><path style="opacity:0.008" fill="#f7c82c" d="M 455.5,494.5 C 456.833,495.167 456.833,495.167 455.5,494.5 Z"/></g>
<g><path style="opacity:0.004" fill="#f8c62c" d="M 461.5,494.5 C 462.833,495.167 462.833,495.167 461.5,494.5 Z"/></g>
<g><path style="opacity:0.008" fill="#f9c92d" d="M 463.5,495.5 C 463.897,494.475 464.563,494.308 465.5,495C 464.906,495.464 464.239,495.631 463.5,495.5 Z"/></g>
<g><path style="opacity:0.016" fill="#f9c730" d="M 473.5,495.5 C 474.946,494.387 476.613,494.22 478.5,495C 476.866,495.494 475.199,495.66 473.5,495.5 Z"/></g>
<g><path style="opacity:0.004" fill="#f9c62c" d="M 499.5,494.5 C 498.833,495.167 498.833,495.167 499.5,494.5 Z"/></g>
<g><path style="opacity:0.004" fill="#f9c62a" d="M 517.5,493.5 C 518.043,493.56 518.376,493.893 518.5,494.5C 517.635,495.583 516.635,495.749 515.5,495C 516.416,494.722 517.082,494.222 517.5,493.5 Z"/></g>
<g><path style="opacity:0.008" fill="#fcca2c" d="M 564.5,494.5 C 565.833,495.167 565.833,495.167 564.5,494.5 Z"/></g>
<g><path style="opacity:0.004" fill="#f6c12e" d="M 638.5,494.5 C 639.833,495.167 639.833,495.167 638.5,494.5 Z"/></g>
<g><path style="opacity:0.016" fill="#f5c730" d="M 640.5,494.5 C 641.833,495.167 641.833,495.167 640.5,494.5 Z"/></g>
<g><path style="opacity:1" fill="#f5e730" d="M 260.5,496.5 C 258.704,497.793 257.037,499.293 255.5,501C 252.833,501.667 250.167,501.667 247.5,501C 237.251,491.578 226.585,482.744 215.5,474.5C 214.737,473.732 213.737,473.232 212.5,473C 215.212,472.262 217.545,472.929 219.5,475C 229.167,483.333 238.833,491.667 248.5,500C 252.687,500.91 256.02,499.576 258.5,496C 259.437,495.308 260.103,495.475 260.5,496.5 Z"/></g>
<g><path style="opacity:0.004" fill="#f8c831" d="M 147.5,499.5 C 148.833,500.167 148.833,500.167 147.5,499.5 Z"/></g>
<g><path style="opacity:0.998" fill="#faef31" d="M 307.5,504.5 C 312.412,504.063 317.078,504.896 321.5,507C 325.406,511.245 325.073,515.245 320.5,519C 315.5,519.667 310.5,519.667 305.5,519C 301.169,513.482 301.836,508.649 307.5,504.5 Z"/></g>
<g><path style="opacity:0.997" fill="#201c21" d="M 306.5,506.5 C 311.297,506.121 315.964,506.621 320.5,508C 323.592,512.118 322.925,515.451 318.5,518C 314.044,518.867 309.711,518.534 305.5,517C 302.864,513.31 303.197,509.81 306.5,506.5 Z"/></g>
<g><path style="opacity:0.997" fill="#262221" d="M 342.5,440.5 C 337.311,442.371 332.978,445.371 329.5,449.5C 329.565,449.062 329.399,448.728 329,448.5C 326.67,451.459 326.004,454.793 327,458.5C 340.092,480.192 345.592,503.526 343.5,528.5C 341.788,539.31 338.122,549.31 332.5,558.5C 332.19,557.262 331.69,557.262 331,558.5C 328.72,562.447 326.053,566.113 323,569.5C 319.888,566.223 318.054,563.223 317.5,560.5C 320.503,555.159 323.503,549.825 326.5,544.5C 327.79,543.942 328.623,542.942 329,541.5C 338.49,513.597 334.823,487.597 318,463.5C 317.162,462.001 316.329,461.668 315.5,462.5C 310.039,455.369 303.372,449.702 295.5,445.5C 295.5,445.167 295.5,444.833 295.5,444.5C 295.579,442.334 296.246,440.334 297.5,438.5C 295.885,436.249 296.552,434.916 299.5,434.5C 303.332,437.25 307.332,439.75 311.5,442C 313.5,442.667 315.5,442.667 317.5,442C 315.942,441.79 314.609,441.29 313.5,440.5C 315.292,440.634 316.958,440.301 318.5,439.5C 322.853,436.146 326.52,432.146 329.5,427.5C 331.899,434.063 336.566,437.897 343.5,439C 342.944,439.383 342.611,439.883 342.5,440.5 Z"/></g>
<g><path style="opacity:0.016" fill="#f8c92c" d="M 414.5,516.5 C 415.833,517.167 415.833,517.167 414.5,516.5 Z"/></g>
<g><path style="opacity:0.004" fill="#f9c92f" d="M 423.5,516.5 C 424.833,517.167 424.833,517.167 423.5,516.5 Z"/></g>
<g><path style="opacity:0.004" fill="#faca2e" d="M 432.5,516.5 C 433.833,517.167 433.833,517.167 432.5,516.5 Z"/></g>
<g><path style="opacity:0.012" fill="#f8c932" d="M 472.5,516.5 C 473.833,517.167 473.833,517.167 472.5,516.5 Z"/></g>
<g><path style="opacity:0.004" fill="#f8cb2f" d="M 475.5,516.5 C 476.833,517.167 476.833,517.167 475.5,516.5 Z"/></g>
<g><path style="opacity:0.004" fill="#f4c532" d="M 760.5,516.5 C 761.833,517.167 761.833,517.167 760.5,516.5 Z"/></g>
<g><path style="opacity:0.992" fill="#f7e82f" d="M 190.5,460.5 C 191.239,460.369 191.906,460.536 192.5,461C 188.388,465.391 184.888,470.224 182,475.5C 174.517,491.81 171.35,508.81 172.5,526.5C 169.259,504.805 173.592,484.805 185.5,466.5C 187.156,464.54 188.823,462.54 190.5,460.5 Z"/></g>
<g><path style="opacity:0.996" fill="#efdf2e" d="M 239.5,509.5 C 240.335,524.054 247.335,528.721 260.5,523.5C 259.657,525.173 258.324,526.34 256.5,527C 252.705,527.837 249.039,527.504 245.5,526C 243.333,523.833 241.167,521.667 239,519.5C 238.192,515.973 238.359,512.64 239.5,509.5 Z"/></g>
<g><path style="opacity:0.998" fill="#f6ec33" d="M 183.5,506.5 C 187.981,505.352 192.648,505.185 197.5,506C 202.833,510.333 202.833,514.667 197.5,519C 192.5,519.667 187.5,519.667 182.5,519C 179.606,516.091 178.773,512.591 180,508.5C 180.816,507.177 181.983,506.511 183.5,506.5 Z"/></g>
<g><path style="opacity:0.999" fill="#1f1c20" d="M 183.5,506.5 C 188.297,506.121 192.964,506.621 197.5,508C 200.343,511.619 200.01,514.952 196.5,518C 192.167,518.667 187.833,518.667 183.5,518C 179.673,514.248 179.673,510.415 183.5,506.5 Z"/></g>
<g><path style="opacity:0.996" fill="#fbc52d" d="M 511.5,514.5 C 522.496,518.653 524.163,525.153 516.5,534C 508.748,536.293 503.748,533.626 501.5,526C 501.974,523.251 502.974,520.751 504.5,518.5C 506.904,517.157 509.238,515.823 511.5,514.5 Z"/></g>
<g><path style="opacity:0.994" fill="#fac42a" d="M 805.5,533.5 C 799.728,524.266 802.061,518.266 812.5,515.5C 821.745,518.358 823.912,524.024 819,532.5C 814.68,534.775 810.18,535.108 805.5,533.5 Z"/></g>
<g><path style="opacity:0.995" fill="#fbc429" d="M 456.5,568.5 C 462.203,552.388 467.537,536.055 472.5,519.5C 480.138,518.503 487.804,518.169 495.5,518.5C 495.546,546.674 495.546,575.007 495.5,603.5C 490.238,603.805 485.072,603.471 480,602.5C 479.801,585.082 479.301,568.082 478.5,551.5C 472.576,567.94 467.243,584.607 462.5,601.5C 457.13,603.379 451.463,604.045 445.5,603.5C 445.405,601.214 444.738,599.214 443.5,597.5C 441.739,589.558 439.406,581.891 436.5,574.5C 433.49,564.128 430.323,553.795 427,543.5C 427.128,545.445 426.962,547.278 426.5,549C 427.308,549.308 427.975,549.808 428.5,550.5C 427.456,551.623 426.79,552.956 426.5,554.5C 426.227,570.257 426.56,586.091 427.5,602C 422.159,603.246 416.992,604.08 412,604.5C 411.829,575.928 411.329,547.428 410.5,519C 418.827,518.5 427.16,518.334 435.5,518.5C 441.155,538.633 447.322,558.633 454,578.5C 455.15,575.232 455.984,571.899 456.5,568.5 Z"/></g>
<g><path style="opacity:0.004" fill="#fbca29" d="M 409.5,520.5 C 410.833,521.167 410.833,521.167 409.5,520.5 Z"/></g>
<g><path style="opacity:0.012" fill="#f9ca2f" d="M 521.5,520.5 C 522.833,521.167 522.833,521.167 521.5,520.5 Z"/></g>
<g><path style="opacity:0.996" fill="#fbc326" d="M 767.5,587.5 C 778.328,587.407 788.995,587.074 799.5,586.5C 799.821,592.026 799.488,597.36 798.5,602.5C 782.833,602.5 767.167,602.5 751.5,602.5C 751.5,574.833 751.5,547.167 751.5,519.5C 756.5,519.5 761.5,519.5 766.5,519.5C 766.169,542.339 766.503,565.006 767.5,587.5 Z"/></g>
<g><path style="opacity:0.004" fill="#f5c832" d="M 664.5,521.5 C 665.833,522.167 665.833,522.167 664.5,521.5 Z"/></g>
<g><path style="opacity:0.004" fill="#f8c72b" d="M 437.5,522.5 C 438.833,523.167 438.833,523.167 437.5,522.5 Z"/></g>
<g><path style="opacity:0.004" fill="#f9c72d" d="M 369.5,524.5 C 370.833,525.167 370.833,525.167 369.5,524.5 Z"/></g>
<g><path style="opacity:0.008" fill="#f7c72b" d="M 438.5,525.5 C 439.833,526.167 439.833,526.167 438.5,525.5 Z"/></g>
<g><path style="opacity:0.008" fill="#fbca2f" d="M 499.5,525.5 C 500.833,526.167 500.833,526.167 499.5,525.5 Z"/></g>
<g><path style="opacity:0.996" fill="#fbc52a" d="M 668.5,522.5 C 669.117,522.611 669.617,522.944 670,523.5C 670.373,529.189 670.873,534.855 671.5,540.5C 676.167,540.5 680.833,540.5 685.5,540.5C 685.5,545.167 685.5,549.833 685.5,554.5C 680.5,554.5 675.5,554.5 670.5,554.5C 670.548,564.668 670.715,574.668 671,584.5C 671.11,586.848 672.277,588.348 674.5,589C 677.996,589.695 681.33,589.195 684.5,587.5C 685.494,592.456 685.827,597.456 685.5,602.5C 679.61,604.232 673.61,604.732 667.5,604C 660,603.167 655.833,599 655,591.5C 654.5,579.171 654.333,566.838 654.5,554.5C 651.5,554.5 648.5,554.5 645.5,554.5C 645.334,550.154 645.501,545.821 646,541.5C 648.719,540.556 651.552,540.223 654.5,540.5C 654.334,535.489 654.501,530.489 655,525.5C 659.532,524.174 664.032,523.174 668.5,522.5 Z"/></g>
<g><path style="opacity:0.004" fill="#f7c72e" d="M 800.5,527.5 C 801.833,528.167 801.833,528.167 800.5,527.5 Z"/></g>
<g><path style="opacity:0.995" fill="#0f0c1d" d="M 185.5,466.5 C 173.592,484.805 169.259,504.805 172.5,526.5C 174.843,540.18 180.176,552.513 188.5,563.5C 187.671,564.332 186.838,563.999 186,562.5C 164.451,530.369 164.117,498.036 185,465.5C 185.399,465.728 185.565,466.062 185.5,466.5 Z"/></g>
<g><path style="opacity:0.004" fill="#f7c82a" d="M 805.5,533.5 C 804.833,534.167 804.833,534.167 805.5,533.5 Z"/></g>
<g><path style="opacity:0.008" fill="#fac92b" d="M 464.5,536.5 C 465.833,537.167 465.833,537.167 464.5,536.5 Z"/></g>
<g><path style="opacity:0.004" fill="#f5c72c" d="M 820.5,536.5 C 821.833,537.167 821.833,537.167 820.5,536.5 Z"/></g>
<g><path style="opacity:0.004" fill="#faca29" d="M 463.5,538.5 C 464.833,539.167 464.833,539.167 463.5,538.5 Z"/></g>
<g><path style="opacity:0.004" fill="#fbcb2d" d="M 550.5,538.5 C 551.833,539.167 551.833,539.167 550.5,538.5 Z"/></g>
<g><path style="opacity:0.008" fill="#fac72c" d="M 589.5,539.5 C 589.897,538.475 590.563,538.308 591.5,539C 590.906,539.464 590.239,539.631 589.5,539.5 Z"/></g>
<g><path style="opacity:0.004" fill="#f8c82f" d="M 601.5,538.5 C 602.833,539.167 602.833,539.167 601.5,538.5 Z"/></g>
<g><path style="opacity:0.004" fill="#fbc82f" d="M 681.5,538.5 C 682.833,539.167 682.833,539.167 681.5,538.5 Z"/></g>
<g><path style="opacity:0.008" fill="#f7c631" d="M 683.5,538.5 C 684.833,539.167 684.833,539.167 683.5,538.5 Z"/></g>
<g><path style="opacity:0.004" fill="#f8c72f" d="M 704.5,538.5 C 705.833,539.167 705.833,539.167 704.5,538.5 Z"/></g>
<g><path style="opacity:0.008" fill="#f7c72d" d="M 726.5,538.5 C 727.833,539.167 727.833,539.167 726.5,538.5 Z"/></g>
<g><path style="opacity:0.004" fill="#f9c92d" d="M 815.5,539.5 C 815.897,538.475 816.563,538.308 817.5,539C 816.906,539.464 816.239,539.631 815.5,539.5 Z"/></g>
<g><path style="opacity:0.008" fill="#f3c32f" d="M 897.5,540.5 C 896.711,540.217 896.044,539.717 895.5,539C 896.816,538.472 897.483,538.972 897.5,540.5 Z"/></g>
<g><path style="opacity:0.004" fill="#f0c02b" d="M 917.5,538.5 C 918.833,539.167 918.833,539.167 917.5,538.5 Z"/></g>
<g><path style="opacity:0.004" fill="#f9ca2b" d="M 463.5,540.5 C 464.833,541.167 464.833,541.167 463.5,540.5 Z"/></g>
<g><path style="opacity:0.004" fill="#fac72d" d="M 803.5,541.5 C 802.833,540.167 802.833,540.167 803.5,541.5 Z"/></g>
<g><path style="opacity:0.996" fill="#fbc52a" d="M 574.5,544.5 C 577.961,548.094 579.794,552.427 580,557.5C 580.5,572.83 580.667,588.163 580.5,603.5C 575.167,603.5 569.833,603.5 564.5,603.5C 564.951,588.428 564.451,573.428 563,558.5C 558.459,552.77 553.292,552.103 547.5,556.5C 546.833,556.5 546.5,556.833 546.5,557.5C 545.442,558.6 544.608,559.934 544,561.5C 543.5,575.496 543.333,589.496 543.5,603.5C 538.167,603.5 532.833,603.5 527.5,603.5C 527.5,582.5 527.5,561.5 527.5,540.5C 532.511,540.334 537.511,540.501 542.5,541C 543.211,542.255 544.044,543.421 545,544.5C 551.383,539.734 558.549,538.234 566.5,540C 569.648,540.738 572.315,542.238 574.5,544.5 Z"/></g>
<g><path style="opacity:0.995" fill="#fbc429" d="M 726.5,586.5 C 727.95,584.617 729.95,583.617 732.5,583.5C 735.176,583.837 737.843,584.17 740.5,584.5C 741.209,585.404 742.209,585.737 743.5,585.5C 741.525,594.312 736.192,600.145 727.5,603C 706.279,608.147 692.779,600.314 687,579.5C 684.684,567.094 687.518,556.094 695.5,546.5C 702.626,540.736 710.793,538.069 720,538.5C 739.418,543.626 747.584,556.293 744.5,576.5C 730.833,576.5 717.167,576.5 703.5,576.5C 704.045,587.962 710.045,592.462 721.5,590C 723.584,589.303 725.251,588.136 726.5,586.5 Z M 724.5,555.5 C 727.172,557.391 728.172,560.058 727.5,563.5C 719.65,563.148 711.65,563.148 703.5,563.5C 703.461,560.911 704.461,558.911 706.5,557.5C 706.833,558.833 707.167,558.833 707.5,557.5C 708.167,557.5 708.5,557.167 708.5,556.5C 709.833,556.167 709.833,555.833 708.5,555.5C 710.508,553.073 713.174,552.073 716.5,552.5C 719.826,552.073 722.492,553.073 724.5,555.5 Z M 708.5,555.5 C 708.5,555.833 708.5,556.167 708.5,556.5C 707.833,556.5 707.5,556.833 707.5,557.5C 707.167,557.5 706.833,557.5 706.5,557.5C 706.5,556.167 707.167,555.5 708.5,555.5 Z"/></g>
<g><path style="opacity:0.995" fill="#fac42a" d="M 917.5,539.5 C 927.219,542.725 933.386,549.391 936,559.5C 937.217,565.101 937.717,570.768 937.5,576.5C 923.484,576.167 909.484,576.501 895.5,577.5C 896.058,580.127 897.058,582.46 898.5,584.5C 899.359,587.452 901.359,589.285 904.5,590C 907.833,590.667 911.167,590.667 914.5,590C 915.416,589.722 916.082,589.222 916.5,588.5C 919.084,587.952 920.084,586.285 919.5,583.5C 920.822,583.67 921.989,583.337 923,582.5C 926.049,583.61 929.216,584.277 932.5,584.5C 934.042,585.141 935.376,586.141 936.5,587.5C 935.237,589.029 934.237,590.695 933.5,592.5C 926.128,602.371 915.795,606.204 902.5,604C 897.92,602.709 893.587,600.876 889.5,598.5C 877.151,583.702 875.484,567.702 884.5,550.5C 886.5,548.5 888.5,546.5 890.5,544.5C 892.875,543.098 895.209,541.765 897.5,540.5C 904.123,539.62 910.789,539.287 917.5,539.5 Z M 916.5,555.5 C 922.211,559.646 921.711,562.646 915,564.5C 909,563.167 903,563.167 897,564.5C 896.5,564 896,563.5 895.5,563C 896.399,561.348 897.399,559.848 898.5,558.5C 898.328,557.508 898.662,556.842 899.5,556.5C 899.973,555.094 900.973,554.427 902.5,554.5C 902.611,553.883 902.944,553.383 903.5,553C 907.167,552.333 910.833,552.333 914.5,553C 915.381,553.708 916.047,554.542 916.5,555.5 Z"/></g>
<g><path style="opacity:0.995" fill="#fbc42a" d="M 820.5,602.5 C 815.25,603.615 809.917,603.781 804.5,603C 803.167,602.333 803.167,601.667 804.5,601C 803.833,600.667 803.167,600.333 802.5,600C 803.82,590.562 804.487,580.896 804.5,571C 804.488,561.092 804.155,551.259 803.5,541.5C 808.75,540.385 814.083,540.219 819.5,541C 820.022,541.561 820.355,542.228 820.5,543C 819.185,562.833 819.185,582.667 820.5,602.5 Z"/></g>
<g><path style="opacity:0.004" fill="#faca2d" d="M 444.5,543.5 C 445.833,544.167 445.833,544.167 444.5,543.5 Z"/></g>
<g><path style="opacity:0.996" fill="#fbc428" d="M 504.5,540.5 C 509.511,540.334 514.511,540.501 519.5,541C 519.957,541.414 520.291,541.914 520.5,542.5C 520.482,563.61 520.149,583.61 519.5,602.5C 514.533,603.662 509.533,603.829 504.5,603C 504.043,602.586 503.709,602.086 503.5,601.5C 503.244,581.462 503.578,561.129 504.5,540.5 Z"/></g>
<g><path style="opacity:0.016" fill="#f8cc3e" d="M 574.5,543.5 C 575.833,544.167 575.833,544.167 574.5,543.5 Z"/></g>
<g><path style="opacity:0.996" fill="#fbc42a" d="M 624.5,567.5 C 625.833,565.167 625.833,562.833 624.5,560.5C 624.5,560.167 624.5,559.833 624.5,559.5C 623.423,556.086 623.423,551.086 624.5,544.5C 625.048,543.312 625.381,542.145 625.5,541C 630.5,540.333 635.5,540.333 640.5,541C 641.167,544.667 641.833,548.333 642.5,552C 641.674,568.759 641.174,585.593 641,602.5C 636.263,603.469 631.43,603.803 626.5,603.5C 626.768,601.901 626.434,600.568 625.5,599.5C 625.541,595.757 624.874,595.59 623.5,599C 617.357,603.935 610.357,605.769 602.5,604.5C 594.632,602.124 590.132,596.79 589,588.5C 588.825,572.926 588.325,557.426 587.5,542C 590.309,540.878 593.309,540.378 596.5,540.5C 599.167,540.667 601.833,540.833 604.5,541C 605.308,541.308 605.975,541.808 606.5,542.5C 606.154,543.696 605.654,543.696 605,542.5C 604.5,556.163 604.333,569.829 604.5,583.5C 607.797,583.329 608.131,583.995 605.5,585.5C 606.364,587.197 607.697,588.363 609.5,589C 618.086,591.159 623.253,587.992 625,579.5C 625.762,575.413 625.596,571.413 624.5,567.5 Z"/></g>
<g><path style="opacity:0.995" fill="#fbc429" d="M 836.5,582.5 C 836.267,579.458 835.267,576.792 833.5,574.5C 830.703,563.942 827.203,553.608 823,543.5C 822.333,542.167 822.333,540.833 823,539.5C 828.448,540.146 833.948,540.812 839.5,541.5C 843.568,554.203 847.734,566.87 852,579.5C 852.219,578.062 852.719,576.729 853.5,575.5C 854.086,575.709 854.586,576.043 855,576.5C 858.804,564.568 862.304,552.568 865.5,540.5C 871.167,540.5 876.833,540.5 882.5,540.5C 875.662,561.514 868.329,582.348 860.5,603C 855.692,602.928 851.192,603.761 847,605.5C 846.333,604.167 845.333,603.167 844,602.5C 841.962,595.541 839.462,588.874 836.5,582.5 Z"/></g>
<g><path style="opacity:0.012" fill="#f8c828" d="M 890.5,544.5 C 889.833,543.167 889.833,543.167 890.5,544.5 Z"/></g>
<g><path style="opacity:0.008" fill="#fac830" d="M 624.5,544.5 C 624.649,545.552 624.483,546.552 624,547.5C 623.26,546.251 623.427,545.251 624.5,544.5 Z"/></g>
<g><path style="opacity:0.004" fill="#fbcb2b" d="M 446.5,545.5 C 447.833,546.167 447.833,546.167 446.5,545.5 Z"/></g>
<g><path style="opacity:0.012" fill="#f8ca2f" d="M 686.5,545.5 C 687.833,546.167 687.833,546.167 686.5,545.5 Z"/></g>
<g><path style="opacity:0.012" fill="#f7c82a" d="M 695.5,546.5 C 694.833,545.167 694.833,545.167 695.5,546.5 Z"/></g>
<g><path style="opacity:0.004" fill="#f9c927" d="M 802.5,545.5 C 803.833,546.167 803.833,546.167 802.5,545.5 Z"/></g>
<g><path style="opacity:0.008" fill="#f8c82b" d="M 802.5,548.5 C 803.525,548.897 803.692,549.563 803,550.5C 802.536,549.906 802.369,549.239 802.5,548.5 Z"/></g>
<g><path style="opacity:0.004" fill="#f8c827" d="M 823.5,549.5 C 824.833,550.167 824.833,550.167 823.5,549.5 Z"/></g>
<g><path style="opacity:0.012" fill="#f6c82d" d="M 884.5,550.5 C 883.833,549.167 883.833,549.167 884.5,550.5 Z"/></g>
<g><path style="opacity:0.016" fill="#f8c62c" d="M 605.5,550.5 C 606.833,551.167 606.833,551.167 605.5,550.5 Z"/></g>
<g><path style="opacity:0.008" fill="#f9c730" d="M 643.5,550.5 C 644.833,551.167 644.833,551.167 643.5,550.5 Z"/></g>
<g><path style="opacity:0.004" fill="#fbca2b" d="M 409.5,551.5 C 410.833,552.167 410.833,552.167 409.5,551.5 Z"/></g>
<g><path style="opacity:0.012" fill="#facd34" d="M 446.5,551.5 C 447.833,552.167 447.833,552.167 446.5,551.5 Z"/></g>
<g><path style="opacity:0.004" fill="#f6c632" d="M 686.5,551.5 C 687.833,552.167 687.833,552.167 686.5,551.5 Z"/></g>
<g><path style="opacity:0.004" fill="#fccb2c" d="M 824.5,551.5 C 825.833,552.167 825.833,552.167 824.5,551.5 Z"/></g>
<g><path style="opacity:0.004" fill="#f9cb2c" d="M 880.5,551.5 C 881.833,552.167 881.833,552.167 880.5,551.5 Z"/></g>
<g><path style="opacity:0.004" fill="#f9c82d" d="M 580.5,552.5 C 581.833,553.167 581.833,553.167 580.5,552.5 Z"/></g>
<g><path style="opacity:0.004" fill="#fbcb2d" d="M 748.5,552.5 C 749.833,553.167 749.833,553.167 748.5,552.5 Z"/></g>
<g><path style="opacity:1" fill="#f6e92e" d="M 344.5,520.5 C 344.892,537.49 339.725,552.824 329,566.5C 328.601,566.272 328.435,565.938 328.5,565.5C 330.086,563.33 331.42,560.996 332.5,558.5C 338.122,549.31 341.788,539.31 343.5,528.5C 343.575,525.794 343.908,523.127 344.5,520.5 Z"/></g>
<g><path style="opacity:0.004" fill="#fcca28" d="M 525.5,554.5 C 526.833,555.167 526.833,555.167 525.5,554.5 Z"/></g>
<g><path style="opacity:0.004" fill="#fdc927" d="M 556.5,555.5 C 555.833,554.167 555.833,554.167 556.5,555.5 Z"/></g>
<g><path style="opacity:0.004" fill="#f7c82e" d="M 687.5,554.5 C 688.833,555.167 688.833,555.167 687.5,554.5 Z"/></g>
<g><path style="opacity:0.006" fill="#faca29" d="M 825.5,554.5 C 826.525,554.897 826.692,555.563 826,556.5C 825.536,555.906 825.369,555.239 825.5,554.5 Z"/></g>
<g><path style="opacity:0.004" fill="#fdcc2b" d="M 556.5,555.5 C 557.833,556.167 557.833,556.167 556.5,555.5 Z"/></g>
<g><path style="opacity:0.012" fill="#fbc92d" d="M 649.5,556.5 C 650.601,555.402 651.934,555.235 653.5,556C 652.207,556.49 650.873,556.657 649.5,556.5 Z"/></g>
<g><path style="opacity:0.004" fill="#f9c82d" d="M 684.5,555.5 C 685.833,556.167 685.833,556.167 684.5,555.5 Z"/></g>
<g><path style="opacity:0.008" fill="#f8c82b" d="M 879.5,555.5 C 880.833,556.167 880.833,556.167 879.5,555.5 Z"/></g>
<g><path style="opacity:1" fill="#f1e12f" d="M 164.5,480.5 C 152.44,522.294 162.44,557.627 194.5,586.5C 187.272,582.11 181.105,576.444 176,569.5C 158.424,544.179 153.424,516.512 161,486.5C 161.785,483.564 162.951,481.564 164.5,480.5 Z"/></g>
<g><path style="opacity:0.01" fill="#fcca2e" d="M 547.5,556.5 C 548.573,557.251 548.74,558.251 548,559.5C 547.283,558.956 546.783,558.289 546.5,557.5C 547.167,557.5 547.5,557.167 547.5,556.5 Z"/></g>
<g><path style="opacity:0.004" fill="#faca30" d="M 559.5,556.5 C 560.289,556.783 560.956,557.283 561.5,558C 560.184,558.528 559.517,558.028 559.5,556.5 Z"/></g>
<g><path style="opacity:0.004" fill="#facd2a" d="M 586.5,556.5 C 587.833,557.167 587.833,557.167 586.5,556.5 Z"/></g>
<g><path style="opacity:0.156" fill="#fad147" d="M 767.5,587.5 C 766.503,565.006 766.169,542.339 766.5,519.5C 761.5,519.5 756.5,519.5 751.5,519.5C 751.5,547.167 751.5,574.833 751.5,602.5C 767.167,602.5 782.833,602.5 798.5,602.5C 782.675,603.496 766.675,603.83 750.5,603.5C 750.5,575.167 750.5,546.833 750.5,518.5C 756.167,518.5 761.833,518.5 767.5,518.5C 767.5,541.5 767.5,564.5 767.5,587.5 Z"/></g>
<g><path style="opacity:0.004" fill="#f8c92d" d="M 858.5,556.5 C 859.833,557.167 859.833,557.167 858.5,556.5 Z"/></g>
<g><path style="opacity:0.004" fill="#fbc82a" d="M 429.5,557.5 C 430.833,558.167 430.833,558.167 429.5,557.5 Z"/></g>
<g><path style="opacity:0.004" fill="#fdca2b" d="M 555.5,557.5 C 556.833,558.167 556.833,558.167 555.5,557.5 Z"/></g>
<g><path style="opacity:0.006" fill="#fbca2f" d="M 624.5,559.5 C 623.475,559.103 623.308,558.437 624,557.5C 624.464,558.094 624.631,558.761 624.5,559.5 Z"/></g>
<g><path style="opacity:0.004" fill="#f8c92d" d="M 651.5,557.5 C 652.833,558.167 652.833,558.167 651.5,557.5 Z"/></g>
<g><path style="opacity:0.012" fill="#fdcd2d" d="M 476.5,558.5 C 477.833,559.167 477.833,559.167 476.5,558.5 Z"/></g>
<g><path style="opacity:0.004" fill="#faca27" d="M 525.5,558.5 C 526.833,559.167 526.833,559.167 525.5,558.5 Z"/></g>
<g><path style="opacity:0.004" fill="#fccb2b" d="M 586.5,558.5 C 587.833,559.167 587.833,559.167 586.5,558.5 Z"/></g>
<g><path style="opacity:0.008" fill="#f8c72c" d="M 605.5,558.5 C 606.833,559.167 606.833,559.167 605.5,558.5 Z"/></g>
<g><path style="opacity:0.008" fill="#fcca2b" d="M 724.5,557.5 C 725.289,557.783 725.956,558.283 726.5,559C 725.184,559.528 724.517,559.028 724.5,557.5 Z"/></g>
<g><path style="opacity:0.004" fill="#f8c931" d="M 846.5,558.5 C 847.525,558.897 847.692,559.563 847,560.5C 846.536,559.906 846.369,559.239 846.5,558.5 Z"/></g>
<g><path style="opacity:0.008" fill="#f9cb2e" d="M 748.5,560.5 C 749.833,561.167 749.833,561.167 748.5,560.5 Z"/></g>
<g><path style="opacity:0.012" fill="#fbcb28" d="M 586.5,561.5 C 587.833,562.167 587.833,562.167 586.5,561.5 Z"/></g>
<g><path style="opacity:0.012" fill="#fac930" d="M 624.5,560.5 C 624.649,561.552 624.483,562.552 624,563.5C 623.26,562.251 623.427,561.251 624.5,560.5 Z"/></g>
<g><path style="opacity:0.997" fill="#272321" d="M 190.5,460.5 C 188.823,462.54 187.156,464.54 185.5,466.5C 185.565,466.062 185.399,465.728 185,465.5C 164.117,498.036 164.451,530.369 186,562.5C 186.838,563.999 187.671,564.332 188.5,563.5C 189.5,564.167 190.5,564.833 191.5,565.5C 191.5,565.833 191.5,566.167 191.5,566.5C 190.475,566.897 190.308,567.563 191,568.5C 193.018,570.35 194.851,572.35 196.5,574.5C 195.15,575.95 193.484,576.617 191.5,576.5C 191.5,577.5 191.5,578.5 191.5,579.5C 188.386,578.909 185.886,577.242 184,574.5C 159.84,544.694 154.673,511.861 168.5,476C 167.906,475.536 167.239,475.369 166.5,475.5C 167.929,472.304 169.595,469.304 171.5,466.5C 171.81,467.738 172.31,467.738 173,466.5C 177.573,459.256 182.907,452.59 189,446.5C 191.122,447.22 191.622,448.387 190.5,450C 191.944,450.781 193.277,450.614 194.5,449.5C 193.41,448.391 193.41,447.391 194.5,446.5C 195.364,448.197 196.697,449.363 198.5,450C 195.667,452.833 192.833,455.667 190,458.5C 189.308,459.437 189.475,460.103 190.5,460.5 Z"/></g>
<g><path style="opacity:0.008" fill="#fbca2d" d="M 562.5,564.5 C 563.573,565.251 563.74,566.251 563,567.5C 562.517,566.552 562.351,565.552 562.5,564.5 Z"/></g>
<g><path style="opacity:0.006" fill="#fac92a" d="M 586.5,564.5 C 587.525,564.897 587.692,565.563 587,566.5C 586.536,565.906 586.369,565.239 586.5,564.5 Z"/></g>
<g><path style="opacity:0.008" fill="#fbca28" d="M 432.5,566.5 C 433.833,567.167 433.833,567.167 432.5,566.5 Z"/></g>
<g><path style="opacity:0.004" fill="#fbc82c" d="M 605.5,566.5 C 606.833,567.167 606.833,567.167 605.5,566.5 Z"/></g>
<g><path style="opacity:0.004" fill="#f9c92c" d="M 624.5,567.5 C 623.833,566.167 623.833,566.167 624.5,567.5 Z"/></g>
<g><path style="opacity:0.008" fill="#fbca30" d="M 456.5,568.5 C 455.833,567.167 455.833,567.167 456.5,568.5 Z"/></g>
<g><path style="opacity:0.006" fill="#fbc92d" d="M 684.5,567.5 C 685.525,567.897 685.692,568.563 685,569.5C 684.536,568.906 684.369,568.239 684.5,567.5 Z"/></g>
<g><path style="opacity:0.008" fill="#fbc931" d="M 855.5,567.5 C 856.833,568.167 856.833,568.167 855.5,567.5 Z"/></g>
<g><path style="opacity:0.996" fill="#211e20" d="M 254.5,583.5 C 250.51,584.384 247.677,583.051 246,579.5C 245.232,575.08 245.398,570.747 246.5,566.5C 250.284,563.602 253.784,563.935 257,567.5C 258.249,573.282 257.415,578.615 254.5,583.5 Z"/></g>
<g><path style="opacity:0.008" fill="#feca2b" d="M 525.5,569.5 C 526.525,569.897 526.692,570.563 526,571.5C 525.536,570.906 525.369,570.239 525.5,569.5 Z"/></g>
<g><path style="opacity:0.008" fill="#fdcc2d" d="M 562.5,569.5 C 563.525,569.897 563.692,570.563 563,571.5C 562.536,570.906 562.369,570.239 562.5,569.5 Z"/></g>
<g><path style="opacity:0.012" fill="#faca2a" d="M 581.5,569.5 C 582.833,570.167 582.833,570.167 581.5,569.5 Z"/></g>
<g><path style="opacity:0.004" fill="#fbc82e" d="M 623.5,569.5 C 624.525,569.897 624.692,570.563 624,571.5C 623.536,570.906 623.369,570.239 623.5,569.5 Z"/></g>
<g><path style="opacity:0.006" fill="#fecb2a" d="M 802.5,569.5 C 803.525,569.897 803.692,570.563 803,571.5C 802.536,570.906 802.369,570.239 802.5,569.5 Z"/></g>
<g><path style="opacity:0.008" fill="#fdca2a" d="M 431.5,570.5 C 432.833,571.167 432.833,571.167 431.5,570.5 Z"/></g>
<g><path style="opacity:0.004" fill="#fccb2b" d="M 433.5,569.5 C 434.525,569.897 434.692,570.563 434,571.5C 433.536,570.906 433.369,570.239 433.5,569.5 Z"/></g>
<g><path style="opacity:0.004" fill="#fbcc2d" d="M 586.5,570.5 C 587.833,571.167 587.833,571.167 586.5,570.5 Z"/></g>
<g><path style="opacity:0.004" fill="#fac92a" d="M 605.5,570.5 C 606.833,571.167 606.833,571.167 605.5,570.5 Z"/></g>
<g><path style="opacity:0.006" fill="#fbca2c" d="M 684.5,570.5 C 685.525,570.897 685.692,571.563 685,572.5C 684.536,571.906 684.369,571.239 684.5,570.5 Z"/></g>
<g><path style="opacity:0.004" fill="#fbcc2d" d="M 408.5,572.5 C 409.833,573.167 409.833,573.167 408.5,572.5 Z"/></g>
<g><path style="opacity:0.005" fill="#fcca2c" d="M 562.5,572.5 C 563.573,573.251 563.74,574.251 563,575.5C 562.517,574.552 562.351,573.552 562.5,572.5 Z"/></g>
<g><path style="opacity:0.004" fill="#fbca2c" d="M 586.5,572.5 C 587.833,573.167 587.833,573.167 586.5,572.5 Z"/></g>
<g><path style="opacity:0.006" fill="#fbc92a" d="M 802.5,572.5 C 803.598,573.601 803.765,574.934 803,576.5C 802.51,575.207 802.343,573.873 802.5,572.5 Z"/></g>
<g><path style="opacity:0.004" fill="#f9c82a" d="M 831.5,572.5 C 832.833,573.167 832.833,573.167 831.5,572.5 Z"/></g>
<g><path style="opacity:0.004" fill="#fac92c" d="M 453.5,573.5 C 454.833,574.167 454.833,574.167 453.5,573.5 Z"/></g>
<g><path style="opacity:0.008" fill="#fac82b" d="M 605.5,572.5 C 606.573,573.251 606.74,574.251 606,575.5C 605.517,574.552 605.351,573.552 605.5,572.5 Z"/></g>
<g><path style="opacity:0.997" fill="#1b181f" d="M 332.5,558.5 C 331.42,560.996 330.086,563.33 328.5,565.5C 327.662,565.842 327.328,566.508 327.5,567.5C 321.116,575.218 313.783,581.884 305.5,587.5C 305.062,587.565 304.728,587.399 304.5,587C 306.349,585.907 308.016,584.574 309.5,583C 307.553,583.536 305.553,583.202 303.5,582C 305.612,581.094 306.445,579.594 306,577.5C 305.667,577.833 305.333,578.167 305,578.5C 305.077,577.262 304.911,576.262 304.5,575.5C 279.277,594.462 251.61,598.962 221.5,589C 220.262,588.31 220.262,587.81 221.5,587.5C 222.167,587.5 222.833,587.5 223.5,587.5C 228.529,589.671 233.863,591.171 239.5,592C 249.721,592.915 259.721,592.415 269.5,590.5C 282.646,587.76 294.312,582.093 304.5,573.5C 309.194,569.473 313.527,565.14 317.5,560.5C 318.054,563.223 319.888,566.223 323,569.5C 326.053,566.113 328.72,562.447 331,558.5C 331.69,557.262 332.19,557.262 332.5,558.5 Z"/></g>
<g><path style="opacity:0.004" fill="#fbc824" d="M 436.5,574.5 C 435.833,575.167 435.833,575.167 436.5,574.5 Z"/></g>
<g><path style="opacity:0.004" fill="#fac929" d="M 525.5,574.5 C 526.833,575.167 526.833,575.167 525.5,574.5 Z"/></g>
<g><path style="opacity:0.004" fill="#faca2c" d="M 684.5,574.5 C 685.833,575.167 685.833,575.167 684.5,574.5 Z"/></g>
<g><path style="opacity:0.997" fill="#1b181f" d="M 166.5,475.5 C 167.239,475.369 167.906,475.536 168.5,476C 154.673,511.861 159.84,544.694 184,574.5C 185.886,577.242 188.386,578.909 191.5,579.5C 191.5,578.5 191.5,577.5 191.5,576.5C 193.484,576.617 195.15,575.95 196.5,574.5C 194.851,572.35 193.018,570.35 191,568.5C 190.308,567.563 190.475,566.897 191.5,566.5C 199.418,575.074 208.751,581.741 219.5,586.5C 219.44,587.043 219.107,587.376 218.5,587.5C 212.688,584.594 207.021,581.761 201.5,579C 204.149,580.631 205.816,582.965 206.5,586C 204.122,586.974 204.456,587.641 207.5,588C 209.513,589.791 209.513,591.125 207.5,592C 219.27,598.776 231.936,602.109 245.5,602C 243.285,601.83 241.285,601.163 239.5,600C 241.076,599.56 242.41,598.727 243.5,597.5C 246.447,599.904 250.447,601.404 255.5,602C 252.833,602.333 250.167,602.667 247.5,603C 252.351,603.174 257.018,603.674 261.5,604.5C 236.939,606.445 214.605,600.445 194.5,586.5C 162.44,557.627 152.44,522.294 164.5,480.5C 165.537,479.07 166.204,477.403 166.5,475.5 Z"/></g>
<g><path style="opacity:0.008" fill="#fbc82d" d="M 833.5,574.5 C 833.631,575.239 833.464,575.906 833,576.5C 832.308,575.563 832.475,574.897 833.5,574.5 Z"/></g>
<g><path style="opacity:0.004" fill="#fbcb2b" d="M 586.5,576.5 C 587.833,577.167 587.833,577.167 586.5,576.5 Z"/></g>
<g><path style="opacity:0.004" fill="#fac92b" d="M 652.5,576.5 C 653.833,577.167 653.833,577.167 652.5,576.5 Z"/></g>
<g><path style="opacity:0.006" fill="#fbca2a" d="M 525.5,577.5 C 526.525,577.897 526.692,578.563 526,579.5C 525.536,578.906 525.369,578.239 525.5,577.5 Z"/></g>
<g><path style="opacity:0.006" fill="#fbca2a" d="M 562.5,577.5 C 563.525,577.897 563.692,578.563 563,579.5C 562.536,578.906 562.369,578.239 562.5,577.5 Z"/></g>
<g><path style="opacity:0.004" fill="#fac92d" d="M 710.5,577.5 C 711.833,578.167 711.833,578.167 710.5,577.5 Z"/></g>
<g><path style="opacity:0.004" fill="#fbcc2e" d="M 714.5,577.5 C 715.833,578.167 715.833,578.167 714.5,577.5 Z"/></g>
<g><path style="opacity:0.004" fill="#fcca2e" d="M 718.5,577.5 C 719.833,578.167 719.833,578.167 718.5,577.5 Z"/></g>
<g><path style="opacity:0.008" fill="#facc31" d="M 742.5,577.5 C 743.833,578.167 743.833,578.167 742.5,577.5 Z"/></g>
<g><path style="opacity:0.996" fill="#f1df2e" d="M 191.5,565.5 C 196.583,569.402 201.583,573.569 206.5,578C 212.728,581.416 218.395,584.583 223.5,587.5C 222.833,587.5 222.167,587.5 221.5,587.5C 221.158,586.662 220.492,586.328 219.5,586.5C 208.751,581.741 199.418,575.074 191.5,566.5C 191.5,566.167 191.5,565.833 191.5,565.5 Z"/></g>
<g><path style="opacity:0.004" fill="#f9c82e" d="M 369.5,578.5 C 370.833,579.167 370.833,579.167 369.5,578.5 Z"/></g>
<g><path style="opacity:0.004" fill="#fcca2b" d="M 586.5,578.5 C 587.573,579.251 587.74,580.251 587,581.5C 586.517,580.552 586.351,579.552 586.5,578.5 Z"/></g>
<g><path style="opacity:0.008" fill="#fac72b" d="M 605.5,578.5 C 606.525,578.897 606.692,579.563 606,580.5C 605.536,579.906 605.369,579.239 605.5,578.5 Z"/></g>
<g><path style="opacity:0.004" fill="#fbca29" d="M 562.5,580.5 C 563.833,581.167 563.833,581.167 562.5,580.5 Z"/></g>
<g><path style="opacity:0.004" fill="#f9ca32" d="M 834.5,580.5 C 835.833,581.167 835.833,581.167 834.5,580.5 Z"/></g>
<g><path style="opacity:0.994" fill="#f7ea2e" d="M 327.5,567.5 C 327.938,567.435 328.272,567.601 328.5,568C 316.08,583.458 300.58,594.625 282,601.5C 281.235,601.43 280.735,601.097 280.5,600.5C 289.592,597.456 297.925,593.122 305.5,587.5C 313.783,581.884 321.116,575.218 327.5,567.5 Z"/></g>
<g><path style="opacity:0.004" fill="#fccb2b" d="M 802.5,580.5 C 803.573,581.251 803.74,582.251 803,583.5C 802.517,582.552 802.351,581.552 802.5,580.5 Z"/></g>
<g><path style="opacity:0.004" fill="#f8c82d" d="M 869.5,581.5 C 870.833,582.167 870.833,582.167 869.5,581.5 Z"/></g>
<g><path style="opacity:1" fill="#fcef2d" d="M 246.5,566.5 C 245.398,570.747 245.232,575.08 246,579.5C 247.677,583.051 250.51,584.384 254.5,583.5C 250.908,586.16 247.741,585.493 245,581.5C 244.333,576.5 244.333,571.5 245,566.5C 245.69,565.262 246.19,565.262 246.5,566.5 Z"/></g>
<g><path style="opacity:0.004" fill="#facb28" d="M 525.5,582.5 C 526.833,583.167 526.833,583.167 525.5,582.5 Z"/></g>
<g><path style="opacity:0.008" fill="#fac92a" d="M 581.5,582.5 C 582.833,583.167 582.833,583.167 581.5,582.5 Z"/></g>
<g><path style="opacity:0.004" fill="#fbc72b" d="M 836.5,582.5 C 835.833,583.167 835.833,583.167 836.5,582.5 Z"/></g>
<g><path style="opacity:0.006" fill="#fcc82d" d="M 898.5,584.5 C 898.369,583.761 898.536,583.094 899,582.5C 899.692,583.437 899.525,584.103 898.5,584.5 Z"/></g>
<g><path style="opacity:0.004" fill="#f8c82c" d="M 708.5,583.5 C 709.833,584.167 709.833,584.167 708.5,583.5 Z"/></g>
<g><path style="opacity:0.017" fill="#f6c935" d="M 740.5,584.5 C 741.251,583.427 742.251,583.26 743.5,584C 742.552,584.483 741.552,584.649 740.5,584.5 Z"/></g>
<g><path style="opacity:0.004" fill="#f9c728" d="M 902.5,583.5 C 903.833,584.167 903.833,584.167 902.5,583.5 Z"/></g>
<g><path style="opacity:0.016" fill="#f4c538" d="M 932.5,584.5 C 933.251,583.427 934.251,583.26 935.5,584C 934.552,584.483 933.552,584.649 932.5,584.5 Z"/></g>
<g><path style="opacity:0.992" fill="#f5e82f" d="M 304.5,573.5 C 294.312,582.093 282.646,587.76 269.5,590.5C 268.448,590.649 267.448,590.483 266.5,590C 280.071,587.547 292.071,581.88 302.5,573C 303.437,572.308 304.103,572.475 304.5,573.5 Z"/></g>
<g><path style="opacity:0.004" fill="#f8c82e" d="M 748.5,584.5 C 749.833,585.167 749.833,585.167 748.5,584.5 Z"/></g>
<g><path style="opacity:0.004" fill="#fac92a" d="M 802.5,584.5 C 803.833,585.167 803.833,585.167 802.5,584.5 Z"/></g>
<g><path style="opacity:0.004" fill="#fac92b" d="M 726.5,586.5 C 725.833,585.167 725.833,585.167 726.5,586.5 Z"/></g>
<g><path style="opacity:0.004" fill="#f8c82f" d="M 901.5,586.5 C 900.475,586.103 900.308,585.437 901,584.5C 901.464,585.094 901.631,585.761 901.5,586.5 Z"/></g>
<g><path style="opacity:0.004" fill="#f9c82d" d="M 902.5,585.5 C 903.833,586.167 903.833,586.167 902.5,585.5 Z"/></g>
<g><path style="opacity:0.004" fill="#faca2c" d="M 615.5,586.5 C 616.833,587.167 616.833,587.167 615.5,586.5 Z"/></g>
<g><path style="opacity:0.008" fill="#f8c92d" d="M 708.5,586.5 C 709.833,587.167 709.833,587.167 708.5,586.5 Z"/></g>
<g><path style="opacity:0.007" fill="#fbc92e" d="M 802.5,586.5 C 803.613,587.946 803.78,589.613 803,591.5C 802.506,589.866 802.34,588.199 802.5,586.5 Z"/></g>
<g><path style="opacity:0.004" fill="#f9c82c" d="M 901.5,586.5 C 901.833,586.5 902.167,586.5 902.5,586.5C 902.315,587.17 901.981,587.17 901.5,586.5 Z"/></g>
<g><path style="opacity:0.004" fill="#f9c82a" d="M 562.5,582.5 C 563.638,585.304 563.805,588.304 563,591.5C 562.502,588.518 562.335,585.518 562.5,582.5 Z"/></g>
<g><path style="opacity:0.016" fill="#f9c82a" d="M 675.5,587.5 C 676.833,588.167 676.833,588.167 675.5,587.5 Z"/></g>
<g><path style="opacity:0.008" fill="#f9c72a" d="M 916.5,588.5 C 915.833,587.167 915.833,587.167 916.5,588.5 Z"/></g>
<g><path style="opacity:0.008" fill="#f6c930" d="M 369.5,588.5 C 370.833,589.167 370.833,589.167 369.5,588.5 Z"/></g>
<g><path style="opacity:0.004" fill="#f8c92d" d="M 880.5,588.5 C 881.833,589.167 881.833,589.167 880.5,588.5 Z"/></g>
<g><path style="opacity:0.012" fill="#f9c72e" d="M 581.5,590.5 C 582.833,591.167 582.833,591.167 581.5,590.5 Z"/></g>
<g><path style="opacity:0.004" fill="#fac82b" d="M 652.5,590.5 C 653.833,591.167 653.833,591.167 652.5,590.5 Z"/></g>
<g><path style="opacity:0.008" fill="#edbd2c" d="M 933.5,592.5 C 934.833,593.167 934.833,593.167 933.5,592.5 Z"/></g>
<g><path style="opacity:0.014" fill="#f8c930" d="M 686.5,593.5 C 687.525,593.897 687.692,594.563 687,595.5C 686.536,594.906 686.369,594.239 686.5,593.5 Z"/></g>
<g><path style="opacity:0.004" fill="#f8c62c" d="M 742.5,593.5 C 743.833,594.167 743.833,594.167 742.5,593.5 Z"/></g>
<g><path style="opacity:0.997" fill="#262221" d="M 305.5,587.5 C 297.925,593.122 289.592,597.456 280.5,600.5C 276.975,601.21 273.642,602.21 270.5,603.5C 267.482,603.704 264.482,604.037 261.5,604.5C 257.018,603.674 252.351,603.174 247.5,603C 250.167,602.667 252.833,602.333 255.5,602C 250.447,601.404 246.447,599.904 243.5,597.5C 242.41,598.727 241.076,599.56 239.5,600C 241.285,601.163 243.285,601.83 245.5,602C 231.936,602.109 219.27,598.776 207.5,592C 209.513,591.125 209.513,589.791 207.5,588C 204.456,587.641 204.122,586.974 206.5,586C 205.816,582.965 204.149,580.631 201.5,579C 207.021,581.761 212.688,584.594 218.5,587.5C 219.107,587.376 219.44,587.043 219.5,586.5C 220.492,586.328 221.158,586.662 221.5,587.5C 220.262,587.81 220.262,588.31 221.5,589C 251.61,598.962 279.277,594.462 304.5,575.5C 304.911,576.262 305.077,577.262 305,578.5C 305.333,578.167 305.667,577.833 306,577.5C 306.445,579.594 305.612,581.094 303.5,582C 305.553,583.202 307.553,583.536 309.5,583C 308.016,584.574 306.349,585.907 304.5,587C 304.728,587.399 305.062,587.565 305.5,587.5 Z"/></g>
<g><path style="opacity:0.008" fill="#f8c82e" d="M 441.5,595.5 C 442.833,596.167 442.833,596.167 441.5,595.5 Z"/></g>
<g><path style="opacity:0.004" fill="#f7c629" d="M 562.5,596.5 C 563.833,597.167 563.833,597.167 562.5,596.5 Z"/></g>
<g><path style="opacity:0.004" fill="#f8c82b" d="M 802.5,596.5 C 803.833,597.167 803.833,597.167 802.5,596.5 Z"/></g>
<g><path style="opacity:0.004" fill="#f5c82a" d="M 443.5,597.5 C 442.833,598.167 442.833,598.167 443.5,597.5 Z"/></g>
<g><path style="opacity:0.004" fill="#f8c930" d="M 686.5,597.5 C 687.833,598.167 687.833,598.167 686.5,597.5 Z"/></g>
<g><path style="opacity:0.012" fill="#f7c52b" d="M 562.5,598.5 C 563.833,599.167 563.833,599.167 562.5,598.5 Z"/></g>
<g><path style="opacity:0.004" fill="#f2c637" d="M 695.5,598.5 C 696.833,599.167 696.833,599.167 695.5,598.5 Z"/></g>
<g><path style="opacity:0.008" fill="#f1c230" d="M 889.5,598.5 C 888.833,599.167 888.833,599.167 889.5,598.5 Z"/></g>
<g><path style="opacity:0.996" fill="#f6e82f" d="M 194.5,586.5 C 214.605,600.445 236.939,606.445 261.5,604.5C 264.482,604.037 267.482,603.704 270.5,603.5C 247.152,609.564 224.485,606.064 202.5,593C 199.58,591.054 196.913,588.887 194.5,586.5 Z"/></g>
<g><path style="opacity:0.004" fill="#f6c625" d="M 625.5,599.5 C 624.833,600.167 624.833,600.167 625.5,599.5 Z"/></g>
<g><path style="opacity:0.008" fill="#f5c52e" d="M 821.5,599.5 C 822.833,600.167 822.833,600.167 821.5,599.5 Z"/></g>
<g><path style="opacity:0.004" fill="#f6c72f" d="M 748.5,600.5 C 749.833,601.167 749.833,601.167 748.5,600.5 Z"/></g>
<g><path style="opacity:0.008" fill="#f6c52d" d="M 841.5,600.5 C 842.833,601.167 842.833,601.167 841.5,600.5 Z"/></g>
<g><path style="opacity:0.008" fill="#f2c62d" d="M 462.5,601.5 C 463.833,602.167 463.833,602.167 462.5,601.5 Z"/></g>
<g><path style="opacity:0.008" fill="#f6c72d" d="M 582.5,601.5 C 583.833,602.167 583.833,602.167 582.5,601.5 Z"/></g>
<g><path style="opacity:0.004" fill="#f4c12e" d="M 820.5,602.5 C 821.833,603.167 821.833,603.167 820.5,602.5 Z"/></g>
<g><path style="opacity:0.008" fill="#f1c32e" d="M 896.5,603.5 C 897.833,604.167 897.833,604.167 896.5,603.5 Z"/></g>
<g><path style="opacity:0.008" fill="#f6c731" d="M 423.5,605.5 C 423.897,604.475 424.563,604.308 425.5,605C 424.906,605.464 424.239,605.631 423.5,605.5 Z"/></g>
<g><path style="opacity:0.012" fill="#f5c72f" d="M 456.5,604.5 C 457.833,605.167 457.833,605.167 456.5,604.5 Z"/></g>
<g><path style="opacity:0.004" fill="#f5c12d" d="M 459.5,604.5 C 460.833,605.167 460.833,605.167 459.5,604.5 Z"/></g>
<g><path style="opacity:0.012" fill="#f3c533" d="M 480.5,604.5 C 481.833,605.167 481.833,605.167 480.5,604.5 Z"/></g>
<g><path style="opacity:0.004" fill="#f5c42d" d="M 482.5,604.5 C 483.833,605.167 483.833,605.167 482.5,604.5 Z"/></g>
<g><path style="opacity:0.008" fill="#f6c62d" d="M 488.5,604.5 C 489.833,605.167 489.833,605.167 488.5,604.5 Z"/></g>
<g><path style="opacity:0.004" fill="#f4c42c" d="M 491.5,604.5 C 492.833,605.167 492.833,605.167 491.5,604.5 Z"/></g>
<g><path style="opacity:0.024" fill="#f3c331" d="M 504.5,604.5 C 505.833,605.167 505.833,605.167 504.5,604.5 Z"/></g>
<g><path style="opacity:0.012" fill="#f5c32c" d="M 506.5,604.5 C 507.833,605.167 507.833,605.167 506.5,604.5 Z"/></g>
<g><path style="opacity:0.008" fill="#f6c42f" d="M 527.5,605.5 C 527.897,604.475 528.563,604.308 529.5,605C 528.906,605.464 528.239,605.631 527.5,605.5 Z"/></g>
<g><path style="opacity:0.008" fill="#f2c52e" d="M 540.5,604.5 C 541.833,605.167 541.833,605.167 540.5,604.5 Z"/></g>
<g><path style="opacity:0.008" fill="#f5c52f" d="M 568.5,604.5 C 569.833,605.167 569.833,605.167 568.5,604.5 Z"/></g>
<g><path style="opacity:0.012" fill="#f4c32f" d="M 575.5,604.5 C 576.833,605.167 576.833,605.167 575.5,604.5 Z"/></g>
<g><path style="opacity:0.012" fill="#f5c630" d="M 577.5,604.5 C 578.833,605.167 578.833,605.167 577.5,604.5 Z"/></g>
<g><path style="opacity:0.008" fill="#f5c52f" d="M 599.5,604.5 C 600.833,605.167 600.833,605.167 599.5,604.5 Z"/></g>
<g><path style="opacity:0.004" fill="#f7c42a" d="M 602.5,604.5 C 601.833,605.167 601.833,605.167 602.5,604.5 Z"/></g>
<g><path style="opacity:0.008" fill="#f4c22d" d="M 630.5,604.5 C 631.833,605.167 631.833,605.167 630.5,604.5 Z"/></g>
<g><path style="opacity:0.004" fill="#f7c52d" d="M 632.5,604.5 C 633.833,605.167 633.833,605.167 632.5,604.5 Z"/></g>
<g><path style="opacity:0.004" fill="#f6c52c" d="M 635.5,604.5 C 636.833,605.167 636.833,605.167 635.5,604.5 Z"/></g>
<g><path style="opacity:0.004" fill="#f6c232" d="M 638.5,605.5 C 638.897,604.475 639.563,604.308 640.5,605C 639.906,605.464 639.239,605.631 638.5,605.5 Z"/></g>
<g><path style="opacity:0.004" fill="#f4c633" d="M 663.5,604.5 C 664.833,605.167 664.833,605.167 663.5,604.5 Z"/></g>
<g><path style="opacity:0.004" fill="#f4c731" d="M 752.5,604.5 C 753.833,605.167 753.833,605.167 752.5,604.5 Z"/></g>
<g><path style="opacity:0.004" fill="#f6c42e" d="M 758.5,604.5 C 759.833,605.167 759.833,605.167 758.5,604.5 Z"/></g>
<g><path style="opacity:0.004" fill="#f6c42d" d="M 766.5,604.5 C 767.833,605.167 767.833,605.167 766.5,604.5 Z"/></g>
<g><path style="opacity:0.004" fill="#f8c72f" d="M 768.5,605.5 C 768.897,604.475 769.563,604.308 770.5,605C 769.906,605.464 769.239,605.631 768.5,605.5 Z"/></g>
<g><path style="opacity:0.004" fill="#f5c22d" d="M 806.5,604.5 C 807.833,605.167 807.833,605.167 806.5,604.5 Z"/></g>
<g><path style="opacity:0.006" fill="#f4c42f" d="M 815.5,605.5 C 816.251,604.427 817.251,604.26 818.5,605C 817.552,605.483 816.552,605.649 815.5,605.5 Z"/></g>
<g><path style="opacity:0.008" fill="#f6c42b" d="M 604.5,605.5 C 607.001,605.511 607.168,606.178 605,607.5C 604.536,606.906 604.369,606.239 604.5,605.5 Z"/></g>
<g><path style="opacity:0.004" fill="#f6c52f" d="M 612.5,605.5 C 613.833,606.167 613.833,606.167 612.5,605.5 Z"/></g>
<g><path style="opacity:0.004" fill="#f2c42d" d="M 638.5,605.5 C 637.833,606.167 637.833,606.167 638.5,605.5 Z"/></g>
<g><path style="opacity:0.004" fill="#f6c62e" d="M 677.5,605.5 C 678.833,606.167 678.833,606.167 677.5,605.5 Z"/></g>
<g><path style="opacity:0.004" fill="#f7c72f" d="M 711.5,605.5 C 712.833,606.167 712.833,606.167 711.5,605.5 Z"/></g>
<g><path style="opacity:0.007" fill="#f7c62d" d="M 713.5,606.5 C 714.601,605.402 715.934,605.235 717.5,606C 716.207,606.49 714.873,606.657 713.5,606.5 Z"/></g>
<g><path style="opacity:0.004" fill="#f6c62f" d="M 719.5,606.5 C 719.897,605.475 720.563,605.308 721.5,606C 720.906,606.464 720.239,606.631 719.5,606.5 Z"/></g>
<g><path style="opacity:0.004" fill="#f7c72e" d="M 723.5,605.5 C 724.833,606.167 724.833,606.167 723.5,605.5 Z"/></g>
<g><path style="opacity:0.012" fill="#f3c42e" d="M 903.5,605.5 C 904.833,606.167 904.833,606.167 903.5,605.5 Z"/></g>
<g><path style="opacity:0.005" fill="#f2c22e" d="M 905.5,606.5 C 906.946,605.387 908.613,605.22 910.5,606C 908.866,606.494 907.199,606.66 905.5,606.5 Z"/></g>
<g><path style="opacity:0.012" fill="#f1c330" d="M 911.5,605.5 C 912.833,606.167 912.833,606.167 911.5,605.5 Z"/></g>
<g><path style="opacity:0.004" fill="#f0c131" d="M 914.5,605.5 C 915.833,606.167 915.833,606.167 914.5,605.5 Z"/></g>
<g><path style="opacity:0.004" fill="#efc238" d="M 133.5,614.5 C 134.833,615.167 134.833,615.167 133.5,614.5 Z"/></g>
<g><path style="opacity:0.012" fill="#eec737" d="M 136.5,620.5 C 137.833,621.167 137.833,621.167 136.5,620.5 Z"/></g>
<g><path style="opacity:0.004" fill="#f0c535" d="M 139.5,622.5 C 138.833,623.167 138.833,623.167 139.5,622.5 Z"/></g>
<g><path style="opacity:0.008" fill="#f1c533" d="M 366.5,622.5 C 367.833,623.167 367.833,623.167 366.5,622.5 Z"/></g>
<g><path style="opacity:0.004" fill="#f0c637" d="M 145.5,627.5 C 144.833,628.167 144.833,628.167 145.5,627.5 Z"/></g>
<g><path style="opacity:0.004" fill="#f1c335" d="M 148.5,630.5 C 148.897,629.475 149.563,629.308 150.5,630C 149.906,630.464 149.239,630.631 148.5,630.5 Z"/></g>
<g><path style="opacity:0.004" fill="#f1c435" d="M 357.5,629.5 C 358.833,630.167 358.833,630.167 357.5,629.5 Z"/></g>
<g><path style="opacity:0.004" fill="#f1c535" d="M 363.5,629.5 C 364.833,630.167 364.833,630.167 363.5,629.5 Z"/></g>
<g><path style="opacity:0.006" fill="#f4c335" d="M 156.5,631.5 C 156.897,630.475 157.563,630.308 158.5,631C 157.906,631.464 157.239,631.631 156.5,631.5 Z"/></g>
<g><path style="opacity:0.004" fill="#f3c734" d="M 160.5,630.5 C 161.833,631.167 161.833,631.167 160.5,630.5 Z"/></g>
<g><path style="opacity:0.006" fill="#f2c633" d="M 168.5,631.5 C 168.897,630.475 169.563,630.308 170.5,631C 169.906,631.464 169.239,631.631 168.5,631.5 Z"/></g>
<g><path style="opacity:0.004" fill="#f5c732" d="M 175.5,631.5 C 175.897,630.475 176.563,630.308 177.5,631C 176.906,631.464 176.239,631.631 175.5,631.5 Z"/></g>
<g><path style="opacity:0.008" fill="#f3c832" d="M 191.5,630.5 C 192.833,631.167 192.833,631.167 191.5,630.5 Z"/></g>
<g><path style="opacity:0.004" fill="#f4c631" d="M 193.5,631.5 C 193.897,630.475 194.563,630.308 195.5,631C 194.906,631.464 194.239,631.631 193.5,631.5 Z"/></g>
<g><path style="opacity:0.004" fill="#f4c530" d="M 197.5,630.5 C 198.833,631.167 198.833,631.167 197.5,630.5 Z"/></g>
<g><path style="opacity:0.004" fill="#f4c532" d="M 199.5,631.5 C 200.251,630.427 201.251,630.26 202.5,631C 201.552,631.483 200.552,631.649 199.5,631.5 Z"/></g>
<g><path style="opacity:0.004" fill="#f4c52d" d="M 207.5,630.5 C 208.833,631.167 208.833,631.167 207.5,630.5 Z"/></g>
<g><path style="opacity:0.004" fill="#f6c62e" d="M 210.5,630.5 C 211.833,631.167 211.833,631.167 210.5,630.5 Z"/></g>
<g><path style="opacity:0.004" fill="#f5c42e" d="M 212.5,630.5 C 213.833,631.167 213.833,631.167 212.5,630.5 Z"/></g>
<g><path style="opacity:0.004" fill="#f2c730" d="M 215.5,631.5 C 215.897,630.475 216.563,630.308 217.5,631C 216.906,631.464 216.239,631.631 215.5,631.5 Z"/></g>
<g><path style="opacity:0.004" fill="#f4c62f" d="M 219.5,630.5 C 220.833,631.167 220.833,631.167 219.5,630.5 Z"/></g>
<g><path style="opacity:0.008" fill="#f7c62f" d="M 223.5,630.5 C 224.833,631.167 224.833,631.167 223.5,630.5 Z"/></g>
<g><path style="opacity:0.006" fill="#f6c530" d="M 227.5,631.5 C 227.897,630.475 228.563,630.308 229.5,631C 228.906,631.464 228.239,631.631 227.5,631.5 Z"/></g>
<g><path style="opacity:0.004" fill="#f4c631" d="M 236.5,631.5 C 236.897,630.475 237.563,630.308 238.5,631C 237.906,631.464 237.239,631.631 236.5,631.5 Z"/></g>
<g><path style="opacity:0.01" fill="#f4c530" d="M 239.5,631.5 C 239.897,630.475 240.563,630.308 241.5,631C 240.906,631.464 240.239,631.631 239.5,631.5 Z"/></g>
<g><path style="opacity:0.004" fill="#f4c52e" d="M 247.5,630.5 C 248.833,631.167 248.833,631.167 247.5,630.5 Z"/></g>
<g><path style="opacity:0.004" fill="#f4c52f" d="M 249.5,630.5 C 250.833,631.167 250.833,631.167 249.5,630.5 Z"/></g>
<g><path style="opacity:0.005" fill="#f5c52d" d="M 252.5,631.5 C 253.601,630.402 254.934,630.235 256.5,631C 255.207,631.49 253.873,631.657 252.5,631.5 Z"/></g>
<g><path style="opacity:0.004" fill="#f4c830" d="M 263.5,630.5 C 264.833,631.167 264.833,631.167 263.5,630.5 Z"/></g>
<g><path style="opacity:0.004" fill="#f2c731" d="M 269.5,630.5 C 270.833,631.167 270.833,631.167 269.5,630.5 Z"/></g>
<g><path style="opacity:0.004" fill="#f6c62f" d="M 271.5,630.5 C 272.833,631.167 272.833,631.167 271.5,630.5 Z"/></g>
<g><path style="opacity:0.004" fill="#f7c42f" d="M 276.5,631.5 C 276.897,630.475 277.563,630.308 278.5,631C 277.906,631.464 277.239,631.631 276.5,631.5 Z"/></g>
<g><path style="opacity:0.004" fill="#f4c52e" d="M 287.5,630.5 C 288.833,631.167 288.833,631.167 287.5,630.5 Z"/></g>
<g><path style="opacity:0.008" fill="#f4c52b" d="M 292.5,630.5 C 293.833,631.167 293.833,631.167 292.5,630.5 Z"/></g>
<g><path style="opacity:0.004" fill="#f3c62f" d="M 295.5,630.5 C 296.833,631.167 296.833,631.167 295.5,630.5 Z"/></g>
<g><path style="opacity:0.004" fill="#f5c62f" d="M 303.5,631.5 C 304.251,630.427 305.251,630.26 306.5,631C 305.552,631.483 304.552,631.649 303.5,631.5 Z"/></g>
<g><path style="opacity:0.004" fill="#f7c42e" d="M 308.5,631.5 C 308.897,630.475 309.563,630.308 310.5,631C 309.906,631.464 309.239,631.631 308.5,631.5 Z"/></g>
<g><path style="opacity:0.004" fill="#f6c82c" d="M 311.5,630.5 C 312.833,631.167 312.833,631.167 311.5,630.5 Z"/></g>
<g><path style="opacity:0.008" fill="#f5c62e" d="M 317.5,630.5 C 318.833,631.167 318.833,631.167 317.5,630.5 Z"/></g>
<g><path style="opacity:0.008" fill="#f3c42e" d="M 319.5,630.5 C 320.833,631.167 320.833,631.167 319.5,630.5 Z"/></g>
<g><path style="opacity:0.004" fill="#f3c62c" d="M 321.5,630.5 C 322.833,631.167 322.833,631.167 321.5,630.5 Z"/></g>
<g><path style="opacity:0.006" fill="#f5c42f" d="M 324.5,631.5 C 324.897,630.475 325.563,630.308 326.5,631C 325.906,631.464 325.239,631.631 324.5,631.5 Z"/></g>
<g><path style="opacity:0.004" fill="#f4c632" d="M 327.5,631.5 C 327.897,630.475 328.563,630.308 329.5,631C 328.906,631.464 328.239,631.631 327.5,631.5 Z"/></g>
<g><path style="opacity:0.008" fill="#f5c632" d="M 330.5,630.5 C 331.833,631.167 331.833,631.167 330.5,630.5 Z"/></g>
<g><path style="opacity:0.008" fill="#f6c632" d="M 332.5,630.5 C 333.833,631.167 333.833,631.167 332.5,630.5 Z"/></g>
<g><path style="opacity:0.004" fill="#f4c52e" d="M 340.5,630.5 C 341.833,631.167 341.833,631.167 340.5,630.5 Z"/></g>
<g><path style="opacity:0.004" fill="#6c6a64" d="M 307.5,933.5 C 308.833,934.167 308.833,934.167 307.5,933.5 Z"/></g>
</svg>
